<?xml version="1.0" encoding="utf-8"?>
<!-- Generator: Adobe Illustrator 16.0.0, SVG Export Plug-In . SVG Version: 6.00 Build 0)  -->
<!DOCTYPE svg PUBLIC "-//W3C//DTD SVG 1.1//EN" "http://www.w3.org/Graphics/SVG/1.1/DTD/svg11.dtd">
<svg version="1.1" id="Layer_1" xmlns="http://www.w3.org/2000/svg" xmlns:xlink="http://www.w3.org/1999/xlink" x="0px" y="0px"
	 width="157px" height="118px" viewBox="0 0 157 118" enable-background="new 0 0 157 118" xml:space="preserve">
<g>
	<g>
		<g>
			<path fill="#056184" d="M95.85,37.932c0-3.384-2.875-6.131-6.412-6.131H72.695l-1.123,2.664h17.865
				c2.001,0,3.627,1.554,3.627,3.467c0,1.908-1.626,3.465-3.627,3.465H68.659l-1.12,2.66h21.898
				C92.975,44.057,95.85,41.309,95.85,37.932z"/>
		</g>
		<g>
			<path fill="#056184" d="M89.068,46.665H73.053l-6.95,16.513h22.966c4.764,0,8.637-3.704,8.637-8.257
				C97.705,50.371,93.832,46.665,89.068,46.665z M89.068,60.343H70.492l4.562-10.845h14.015c3.128,0,5.67,2.434,5.67,5.423
				C94.738,57.912,92.196,60.343,89.068,60.343z"/>
		</g>
		<g>
			<path fill="#056184" d="M89.996,57.883c0.948-0.651,1.602-1.594,1.854-2.664H75.559l-1.121,2.664H89.996z"/>
		</g>
		<g>
			<polygon fill="#056184" points="66.698,46.665 59.748,63.178 62.902,63.178 69.851,46.665 			"/>
		</g>
	</g>
	<g>
		<path fill="#056184" d="M78.727,83.966c-20.193,0-36.62-16.363-36.62-36.476c0-20.114,16.427-36.478,36.62-36.478
			c20.194,0,36.623,16.363,36.623,36.478C115.35,67.603,98.921,83.966,78.727,83.966z M78.727,11.814
			c-19.787,0-35.887,16.003-35.887,35.676c0,19.669,16.1,35.676,35.887,35.676c19.789,0,35.89-16.007,35.89-35.676
			C114.616,27.817,98.516,11.814,78.727,11.814z"/>
	</g>
	<g>
		<g>
			<path fill="#056184" d="M78.727,85.574c-20.998,0-38.083-17.086-38.083-38.084c0-21,17.085-38.084,38.083-38.084
				c21.001,0,38.086,17.084,38.086,38.084C116.813,68.488,99.728,85.574,78.727,85.574z M78.727,13.422
				c-18.98,0-34.425,15.282-34.425,34.068c0,18.785,15.444,34.066,34.425,34.066c18.984,0,34.426-15.281,34.426-34.066
				C113.152,28.704,97.711,13.422,78.727,13.422z"/>
		</g>
		<g>
			<path fill="#056184" d="M78.727,79.246C61.148,79.246,46.852,65,46.852,47.49s14.297-31.758,31.875-31.758
				c17.577,0,31.878,14.248,31.878,31.758S96.304,79.246,78.727,79.246z M78.727,16.536c-17.174,0-31.146,13.887-31.146,30.954
				c0,17.069,13.973,30.952,31.146,30.952s31.145-13.883,31.145-30.952C109.871,30.423,95.9,16.536,78.727,16.536z"/>
		</g>
	</g>
</g>
<g>
	<rect x="66" y="99" fill="#056184" width="27" height="10"/>
	<rect x="48" y="114" fill="#056184" width="62" height="4"/>
	<path fill="#056184" d="M154.994,2.043C153.692,0.742,151.967,0,150.112,0H7.462C5.609,0,3.596,0.742,2.293,2.043
		C0.992,3.344,0,5.107,0,6.962v81.497c0,1.852,0.992,3.583,2.293,4.884c1.303,1.302,3.18,2.013,5.033,2.013
		c-3.813,0-6.783-3.086-6.783-6.896c0,3.79,3.047,6.66,6.832,6.693C7.387,95.166,7.438,95,7.462,95h57.373h0.022h27.896h0.018
		h57.341c0.062,0-0.112,0-0.112,0v0.204c2,0,3.588-0.677,4.848-1.936c1.301-1.301,2.152-2.958,2.152-4.81V6.962
		C157,5.107,156.294,3.344,154.994,2.043z M16.805,88H7V6h133.185H150v82H16.805z M7.385,95.286c0.002,0,0.035-0.088,0.1-0.164
		c-0.068,0.083-0.101,0.139-0.093,0.174c-0.002-0.002-0.005-0.01-0.005-0.01H7.385z M7.393,95.306L7.393,95.306l0.001,0.003
		L7.393,95.306z"/>
</g>
<g>
	<circle fill="#056184" cx="379.766" cy="-256.338" r="11.882"/>
	<path fill="#056184" d="M306.607-300.766c-21.495,0-38.982,17.308-38.982,38.578c0,21.272,17.487,38.576,38.982,38.576
		c21.498,0,38.983-17.304,38.983-38.576C345.591-283.458,328.105-300.766,306.607-300.766z M306.607-226.229
		c-19.903,0-36.097-16.131-36.097-35.959s16.193-35.962,36.097-35.962s36.099,16.134,36.099,35.962S326.511-226.229,306.607-226.229
		z"/>
	<path fill="#056184" d="M306.607-297.24c-19.447,0-35.269,15.725-35.269,35.053s15.821,35.051,35.269,35.051
		c19.449,0,35.27-15.723,35.27-35.051S326.057-297.24,306.607-297.24z M295.208-268.883h23.53c2.263,0,4.104-1.836,4.104-4
		s-1.842-4-4.104-4h-20.233l1.271-3h18.962c4.003,0,7.259,3.174,7.259,7s-3.256,7-7.259,7h-24.8L295.208-268.883z M285.116-244.883
		l7.871-18h3.57l-7.869,18H285.116z M318.319-244.883h-26.006l7.867-18h18.139c5.393,0,9.779,3.847,9.779,8.998
		C328.099-248.729,323.712-244.883,318.319-244.883z"/>
	<path fill="#056184" d="M404.667-298.113c0-9.281-11.506-16.77-25.498-16.77H270.431c-13.992,0-25.764,7.488-25.764,16.77v72.117
		c0,9.281,11.771,17.113,25.764,17.113h108.738c13.992,0,25.498-7.832,25.498-17.113v-14.136l-26,0.087
		c-8-0.07-15.729-7.176-15.729-15.935c0-8.803,7.177-15.627,15.979-15.627c1.235,0,1.723-0.155,3.63-0.276h22.119V-298.113z
		 M306.607-219.063c-23.777,0-43.125-19.347-43.125-43.125c0-23.779,19.348-43.127,43.125-43.127
		c23.779,0,43.127,19.348,43.127,43.127C349.734-238.409,330.387-219.063,306.607-219.063z"/>
	<path fill="#056184" d="M318.319-259.883h-15.87l-5.166,12h21.036c3.54,0,6.422-2.614,6.422-6.001
		C324.741-257.268,321.859-259.883,318.319-259.883z M319.37-250.883h-17.621l1.27-3h18.451
		C321.183-251.883,320.442-250.883,319.37-250.883z"/>
</g>
<g>
	<rect x="-98" y="-207" fill="#22ABCA" width="19" height="148"/>
	<rect x="-63" y="-167" fill="#22ABCA" width="19" height="108"/>
	<rect x="-28" y="-121" fill="#22ABCA" width="19" height="62"/>
	<rect x="5" y="-90" fill="#22ABCA" width="19" height="31"/>
</g>
<g>
	<g>
		<polygon fill="#1EABCA" points="421.083,168.681 410.472,158.079 454.523,113.985 410.472,69.89 421.083,59.288 475.727,113.985 
					"/>
	</g>
	<g>
		<polygon fill="#1EABCA" points="307.739,168.681 253.096,113.985 307.739,59.288 318.351,69.89 274.299,113.985 318.351,158.079 
					"/>
	</g>
	<g>
		
			<rect x="355.821" y="37.875" transform="matrix(0.9715 0.2371 -0.2371 0.9715 36.5614 -82.9956)" fill="#1EABCA" width="15" height="145.25"/>
	</g>
</g>
<path fill="#22ABCA" d="M197-313.477c0,3.498-3.214,6.477-7.123,6.477H53.075c-3.907,0-7.075-2.979-7.075-6.477v-34.836
	c0-3.498,3.168-5.688,7.075-5.688h136.802c3.909,0,7.123,2.19,7.123,5.688V-313.477z"/>
<path fill="#22ABCA" d="M197-244.334c0,3.498-3.214,6.334-7.123,6.334H53.075c-3.907,0-7.075-2.836-7.075-6.334v-34.835
	c0-3.498,3.168-5.831,7.075-5.831h136.802c3.909,0,7.123,2.333,7.123,5.831V-244.334z"/>
<path fill="#FFFFFF" d="M94.081-343.016H77.266l-1.191-1.716l0,0c-0.461-0.643-1.362-1.077-2.399-1.077H64.33
	c-1.506,0-2.726,0.918-2.726,2.053v21.365c0,1.134,1.22,2.055,2.726,2.055h29.75c1.505,0,2.725-0.92,2.725-2.055v-18.572
	C96.806-342.097,95.586-343.016,94.081-343.016z"/>
<path fill="#056184" d="M97.512-318.114c0,1.179-1.27,2.134-2.836,2.134H63.732c-1.565,0-2.834-0.955-2.834-2.134v-19.318
	c0-1.179,1.269-2.136,2.834-2.136h30.944c1.566,0,2.836,0.957,2.836,2.136V-318.114z"/>
<polygon fill="#FFFFFF" points="82,-326 82,-337 77,-337 77,-326 72.287,-326 79.205,-319.276 86.124,-326 "/>
<path fill="#FFFFFF" d="M94.081-274.928H77.266l-1.191-1.718l0,0c-0.461-0.641-1.362-1.076-2.399-1.076H64.33
	c-1.506,0-2.726,0.918-2.726,2.052v21.366c0,1.134,1.22,2.053,2.726,2.053h29.75c1.505,0,2.725-0.919,2.725-2.053v-18.572
	C96.806-274.009,95.586-274.928,94.081-274.928z"/>
<path fill="#056184" d="M97.512-250.027c0,1.179-1.27,2.135-2.836,2.135H63.732c-1.565,0-2.834-0.957-2.834-2.135v-19.318
	c0-1.179,1.269-2.134,2.834-2.134h30.944c1.566,0,2.836,0.956,2.836,2.134V-250.027z"/>
<polygon fill="#FFFFFF" points="82,-258 82,-268 77,-268 77,-258 72.287,-258 79.205,-251.275 86.124,-258 "/>
<g>
	<path fill="#FFFFFF" d="M110.831-326.941l3.214-0.391c0.102,0.82,0.378,1.447,0.827,1.879c0.449,0.435,0.993,0.651,1.631,0.651
		c0.686,0,1.262-0.26,1.732-0.78c0.468-0.521,0.703-1.221,0.703-2.103c0-0.836-0.225-1.498-0.674-1.986
		c-0.449-0.489-0.997-0.733-1.643-0.733c-0.425,0-0.934,0.082-1.525,0.248l0.367-2.706c0.897,0.023,1.583-0.172,2.057-0.584
		c0.473-0.415,0.708-0.964,0.708-1.65c0-0.583-0.173-1.049-0.52-1.394c-0.345-0.347-0.808-0.52-1.382-0.52
		c-0.569,0-1.053,0.197-1.454,0.591c-0.402,0.394-0.646,0.969-0.733,1.724l-3.061-0.52c0.212-1.046,0.532-1.884,0.962-2.51
		c0.43-0.628,1.028-1.12,1.797-1.479c0.768-0.358,1.628-0.537,2.581-0.537c1.632,0,2.938,0.521,3.924,1.56
		c0.812,0.851,1.217,1.811,1.217,2.883c0,1.521-0.831,2.734-2.494,3.64c0.993,0.213,1.787,0.69,2.382,1.43
		c0.594,0.739,0.893,1.635,0.893,2.682c0,1.521-0.556,2.816-1.667,3.889c-1.111,1.071-2.493,1.606-4.147,1.606
		c-1.568,0-2.867-0.45-3.901-1.353C111.594-324.305,110.995-325.483,110.831-326.941z"/>
	<path fill="#FFFFFF" d="M135.624-325.429v3.085h-11.64c0.125-1.167,0.504-2.271,1.134-3.314c0.629-1.044,1.875-2.429,3.736-4.155
		c1.497-1.395,2.413-2.341,2.752-2.836c0.457-0.686,0.686-1.362,0.686-2.033c0-0.74-0.201-1.311-0.598-1.709
		c-0.397-0.396-0.947-0.597-1.649-0.597c-0.692,0-1.244,0.21-1.655,0.628c-0.409,0.417-0.645,1.111-0.708,2.08l-3.31-0.331
		c0.197-1.829,0.815-3.14,1.855-3.937c1.04-0.796,2.339-1.193,3.9-1.193c1.709,0,3.052,0.46,4.029,1.383
		c0.977,0.921,1.465,2.068,1.465,3.44c0,0.779-0.139,1.521-0.419,2.227s-0.722,1.443-1.329,2.215
		c-0.402,0.512-1.127,1.249-2.175,2.21c-1.047,0.961-1.711,1.599-1.991,1.915c-0.281,0.315-0.506,0.622-0.68,0.921H135.624z"/>
	<path fill="#FFFFFF" d="M145.339-339.669h6.924c1.372,0,2.394,0.058,3.068,0.172c0.673,0.113,1.275,0.352,1.808,0.715
		c0.53,0.362,0.975,0.846,1.329,1.447c0.354,0.603,0.533,1.278,0.533,2.027c0,0.812-0.22,1.557-0.657,2.234
		c-0.436,0.677-1.029,1.185-1.778,1.524c1.056,0.307,1.867,0.831,2.435,1.573c0.566,0.739,0.85,1.611,0.85,2.611
		c0,0.787-0.184,1.553-0.551,2.298c-0.365,0.744-0.865,1.339-1.499,1.784c-0.635,0.446-1.417,0.719-2.347,0.821
		c-0.583,0.063-1.989,0.103-4.219,0.119h-5.896V-339.669z M148.837-336.786v4.006h2.292c1.363,0,2.21-0.02,2.542-0.059
		c0.599-0.071,1.069-0.277,1.412-0.621c0.343-0.342,0.514-0.792,0.514-1.352c0-0.536-0.148-0.971-0.443-1.307
		c-0.296-0.336-0.736-0.539-1.318-0.609c-0.348-0.04-1.344-0.059-2.991-0.059H148.837z M148.837-329.896v4.633h3.238
		c1.261,0,2.061-0.037,2.399-0.109c0.521-0.093,0.944-0.324,1.271-0.689c0.326-0.367,0.49-0.856,0.49-1.471
		c0-0.521-0.126-0.963-0.378-1.324c-0.252-0.364-0.616-0.627-1.093-0.792c-0.478-0.167-1.511-0.249-3.103-0.249H148.837z"/>
	<path fill="#FFFFFF" d="M162.699-322.344v-17.325h3.498v17.325H162.699z"/>
	<path fill="#FFFFFF" d="M173.43-322.344v-14.395h-5.141v-2.93h13.768v2.93h-5.128v14.395H173.43z"/>
</g>
<g>
	<path fill="#FFFFFF" d="M122.199-267.339l-3.214,0.355c-0.079-0.662-0.284-1.151-0.615-1.466c-0.331-0.315-0.761-0.472-1.289-0.472
		c-0.7,0-1.293,0.314-1.778,0.946c-0.484,0.629-0.79,1.942-0.917,3.935c0.829-0.978,1.855-1.465,3.084-1.465
		c1.387,0,2.575,0.528,3.563,1.583c0.989,1.056,1.483,2.418,1.483,4.088c0,1.773-0.52,3.195-1.559,4.266
		c-1.04,1.072-2.376,1.607-4.006,1.607c-1.749,0-3.188-0.679-4.314-2.039c-1.127-1.359-1.69-3.586-1.69-6.683
		c0-3.174,0.587-5.464,1.761-6.866s2.698-2.104,4.574-2.104c1.315,0,2.404,0.37,3.267,1.105
		C121.413-269.812,121.962-268.741,122.199-267.339z M114.67-260.095c0,1.079,0.248,1.912,0.745,2.499
		c0.496,0.587,1.063,0.882,1.701,0.882c0.615,0,1.128-0.242,1.538-0.722c0.41-0.481,0.615-1.269,0.615-2.363
		c0-1.127-0.221-1.953-0.662-2.476c-0.442-0.524-0.993-0.786-1.655-0.786c-0.639,0-1.179,0.25-1.62,0.75
		S114.67-261.072,114.67-260.095z"/>
	<path fill="#FFFFFF" d="M130.92-254.257v-3.486h-7.091v-2.907l7.517-11.003h2.789v10.992h2.151v2.918h-2.151v3.486H130.92z
		 M130.92-260.661v-5.922l-3.982,5.922H130.92z"/>
	<path fill="#FFFFFF" d="M145.338-271.582h6.926c1.371,0,2.394,0.058,3.068,0.171c0.673,0.114,1.275,0.353,1.807,0.715
		c0.531,0.363,0.976,0.846,1.33,1.447c0.354,0.604,0.533,1.279,0.533,2.027c0,0.813-0.22,1.558-0.657,2.234
		c-0.437,0.677-1.029,1.186-1.778,1.524c1.056,0.308,1.867,0.831,2.435,1.573c0.566,0.74,0.85,1.611,0.85,2.611
		c0,0.788-0.184,1.555-0.551,2.298c-0.365,0.745-0.866,1.339-1.5,1.785c-0.634,0.446-1.416,0.719-2.346,0.821
		c-0.583,0.063-1.989,0.103-4.219,0.117h-5.898V-271.582z M148.837-268.698v4.006h2.292c1.363,0,2.209-0.02,2.54-0.06
		c0.599-0.072,1.07-0.277,1.414-0.621c0.343-0.343,0.514-0.792,0.514-1.353c0-0.537-0.148-0.971-0.444-1.307
		c-0.294-0.334-0.734-0.538-1.316-0.607c-0.348-0.04-1.344-0.059-2.991-0.059H148.837z M148.837-261.809v4.633h3.238
		c1.26,0,2.06-0.036,2.399-0.107c0.519-0.093,0.943-0.325,1.271-0.69c0.326-0.367,0.49-0.857,0.49-1.471
		c0-0.522-0.126-0.963-0.379-1.324c-0.251-0.363-0.616-0.628-1.092-0.792c-0.478-0.167-1.511-0.249-3.103-0.249H148.837z"/>
	<path fill="#FFFFFF" d="M162.699-254.257v-17.325h3.498v17.325H162.699z"/>
	<path fill="#FFFFFF" d="M173.43-254.257v-14.394h-5.141v-2.931h13.768v2.931h-5.13v14.394H173.43z"/>
</g>
</svg>
