<?xml version="1.0" encoding="utf-8"?>
<!-- Generator: Adobe Illustrator 16.0.0, SVG Export Plug-In . SVG Version: 6.00 Build 0)  -->
<!DOCTYPE svg PUBLIC "-//W3C//DTD SVG 1.1//EN" "http://www.w3.org/Graphics/SVG/1.1/DTD/svg11.dtd">
<svg version="1.1" id="Layer_1" xmlns="http://www.w3.org/2000/svg" xmlns:xlink="http://www.w3.org/1999/xlink" x="0px" y="0px"
	 width="94.059px" height="94.146px" viewBox="0 0 94.059 94.146" enable-background="new 0 0 94.059 94.146" xml:space="preserve">
<g>
	<g>
		<path fill="#FFFFFF" d="M47.072,0C21.074,0,0,21.074,0,47.073C0,73.07,21.074,94.146,47.072,94.146
			c25.998,0,47.074-21.076,47.074-47.073C94.146,21.074,73.07,0,47.072,0z M65.031,23.971l-6.512,0.006
			c-5.104,0-6.094,2.425-6.094,5.983v7.851h12.176l-0.006,12.294H52.43v31.551H39.729V50.104H29.113V37.811h10.615v-9.068
			c0-10.52,6.431-16.251,15.814-16.251l9.487,0.015L65.031,23.971L65.031,23.971z"/>
	</g>
</g>
</svg>
