<?xml version="1.0" encoding="utf-8"?>
<!-- Generator: Adobe Illustrator 16.0.0, SVG Export Plug-In . SVG Version: 6.00 Build 0)  -->
<!DOCTYPE svg PUBLIC "-//W3C//DTD SVG 1.1//EN" "http://www.w3.org/Graphics/SVG/1.1/DTD/svg11.dtd">
<svg version="1.1" id="Layer_1" xmlns="http://www.w3.org/2000/svg" xmlns:xlink="http://www.w3.org/1999/xlink" x="0px" y="0px"
	 width="99.1px" height="116.527px" viewBox="0 0 99.1 116.527" enable-background="new 0 0 99.1 116.527" xml:space="preserve">
<path fill="#056184" d="M34.406,99.226c4.17-0.43,4.72-4.844,2.756-6.77c-1.618-1.586-10.544-8.213-12.873-10.818
	c-1.081-1.21-2.547-1.803-3.167-3.162c-1.429-3.127-2.429-7.586-0.617-10.791c0.328-0.58,0.538-0.317,0.288,0.887
	c-1.422,6.838,3.027,12.421,4.009,9.559c0.677-1.979,0.049-5.52,0.411-8.33c0.641-4.974,5.168-14.524,7.156-15.069
	c-3.066-5.682,3.597-10.129,3.517-15.115c-0.055-3.241,2.847,3.986,5.764,5.521c3.256,1.711,6.836-3.226,11.917-5.732
	c1.438-0.708,3.282-1.521,3.157-2.125c-0.597-2.916-6.674,3.597-12.101,3.814c-2.479,0.1-3.396-0.485-4.354-1.41
	c-2.893-2.797,0.295-0.463,4.596-1.24c1.912-0.346,2.555-0.665,4.582-1.484c2.028-0.818,4.349-2.032,6.643-2.655
	c1.599-0.436,1.465-1.636,0.843-1.996c-0.356-0.207-0.887-0.188-1.308,0.538c-0.984,1.703-5.615,2.687-7.062,3.13
	c-1.855,0.567-3.908,1.099-6.635,0.986c-4.144-0.168-3.178-2.066-6.141-3.767c-0.87-0.498-0.636-1.807,0.52-2.961
	c0.604-0.605,2.263-0.946,3.085-2.323c0.115-0.192,1.175-1.302,2.006-1.875c0.287-0.198,0.313-5.259-2.283-5.361
	c-2.205-0.09-2.831,1.621-2.738,3.324c0.091,1.7,0.994,3.104,1.595,3.1c1.156-0.012,0.073,1.266-0.561,1.472
	c-0.964,0.313-2.283-3.792-2.132-5.761c0.158-2.053,1.228-5.688,3.825-5.617c2.34,0.063,4.035,2.996,3.95,8.056
	c-0.016,0.858,3.793-0.409,5.063,0.934c0.907,0.961-3.113-8.963,5.843-9.646c2.359,0.451,4.625,1.235,5.566,6.661
	c-0.348,0.564,0.588,4.351-0.868,4.8c-1.776,0.547-2.874-0.08-1.848-1.772c0.704-1.7,0.017-6.026-3.581-5.766
	c-3.598,0.259-3.12,6.644-2.135,6.77c0.987,0.126,3.472,1.89,5.204,2.228c5.69,1.106,1.51,4.37,2.249,8.318
	c0.834,4.46,3.771,3.281,6.413,15.093c0.552,0.72,2.737,1.399,4.869,10.475c1.917,8.164-0.797,14.101,3.812,13.611
	c1.038-0.109,2.556-0.398,3.215-2.711c1.727-6.048-0.862-13.253-3.478-18.113c-1.522-2.834-2.956-4.765-3.713-5.428
	c2.995,1.771,6.825,7.426,7.709,11.625c1.16,5.516,1.987,7.851,0.232,13.684c1.014,0.504,3.535,1.577,3.535,2.781
	c-2.627-2.16-10.67-2.545-10.877,2.621c-1.371,0.026-2.408,0.139-3.292,1.188c-3.232,3.834-0.229,11.541-0.559,15.674
	c-0.288,3.637-1.297,7.237-1.866,10.892c-1.924-0.072-1.736-1.483-1.118-3.458c0.544-1.745,1.422-3.93,1.479-6.026
	c0.053-1.895-0.154-3.08-0.633-3.375c-0.479-0.294-1.228,0.303-2.262,1.969c-2.209,3.559-6.992,5.121-11.46,5.682
	c-4.467,0.561-8.619,0.115-10.818-2.349c-0.751-0.841-1.998,0.229-2.146,0.454c-0.198,0.3,0.728,0.881,1.426,2.163
	c1.021,1.87,1.989,4.71-0.427,6.005C38.621,103.636,36.537,103.251,34.406,99.226L34.406,99.226z M32.809,99.052
	c1.602,2.518,7.241,13.129-2.646,14.506c-3.308,0.461-8.633-1.926-13.79-3.186c-4.636-1.137-9.344-1.808-11.978-2.547
	c-1.586-0.445-2.249-1.017-2.387-1.68c-0.366-1.761,1.926-4.23,2.042-6.315s-0.761-3.168-1.479-4.869
	c-0.72-1.705-0.905-2.981-0.33-3.714c0.446-0.568,1.356-0.807,2.837-0.661c1.876,0.185,4.141-0.2,5.357-0.942
	c2.05-1.25,3.015-3.813,2.091-6.899c0,3.021-0.989,4.166-3.474,5.547c-2.341,1.303-5.954,0.25-7.614,1.688
	c-1.998,1.734,0.713,6.211,0.491,9.497c-0.17,2.523-2.805,5.369-1.63,7.901c1.182,2.546,6.694,2.824,12.441,4.025
	c8.168,1.708,12.932,4.684,16.704,4.824c5.508,0.204,6.351-5.449,14.997-5.523c2.521-0.134,4.987-0.213,7.451-0.244
	c2.791-0.034,5.581-0.01,8.443,0.059c5.753,0.14,3.774,3.142,7.508,5.06c3.149,1.618,8.813,0.979,10.167-0.313
	c1.833-1.748,6.755-5.953,10.525-7.854c4.7-2.371,15.738-6.447,7.726-11.421c-1.867-1.157-6.282-2.384-6.654-10.856
	c-1.671,1.483-1.479,9.383,3.188,10.95c5.212,1.749,8.467,4.681-1.222,7.993c-6.414,2.194-7.505,2.87-12.581,7.098
	c-5.14,4.277-12.766,2.577-11.434-6.428c0.693-4.692,1.093-8.568-0.074-12.646c-0.569-1.992-0.854-4.547-0.464-6.339
	c0.758-3.485,2.645-4.534,4.492-1.189c1.16,2.102,1.567,4.557,5.723,4.756c6.527,0.313,7.82-6.31,9.906-6.609
	c1.393-0.2,2.782-4.139,1.724-10.508c-1.137-6.822-5.148-17.592-10.296-23.055c-4.276-4.537-6.974-8.518-8.669-14.197
	c-1.424-4.771-2.22-9.417-1.927-13.857c0.381-5.754-2.81-13.76-7.89-17.527c-3.182-2.356-8.166-3.62-12.682-3.571
	C44.874,0.031,42.491,0.4,40.66,1.394c-7.533,4.09-8.586,9.934-8.475,16.601c0.106,6.265,0.32,13.411,1.031,20.211
	c-0.843,3.123-5.229,9.041-8.037,12.643c-3.776,3.729-5.683,10.939-8.127,17.238c-1.304,3.357-3.499,4.875-3.684,9.191
	c-0.052,1.207-0.01,4.331,1.145,3.438C18.933,77.296,24.461,85.908,32.809,99.052L32.809,99.052z M55.731,8.769
	c-0.235,0.711-1.217,1.305-0.595,1.803s0.979-0.696,2.231-1.145c0.322-0.115,1.826,0.049,2.104-0.667
	c0.121-0.313-0.775-0.667-1.31-1.179c-0.534-0.51-1.059-0.963-1.562-0.933C55.306,6.732,55.943,8.138,55.731,8.769L55.731,8.769z
	 M63.408,34.739c0.466-0.487,0.707,0.847,1.961,1.639c0.992,0.627,1.96,0.162,2.211,1.434c0.18,0.911-0.39,1.897-1.152,1.77
	C65.098,39.356,62.028,36.188,63.408,34.739L63.408,34.739z M42.692,26.726c-2.064-0.154-2.207,1.339-1.521,1.314
	C41.867,28.015,41.438,26.858,42.692,26.726L42.692,26.726z M39.149,22.911c0.245-0.055,0.593,0.361,0.483,0.944
	c-0.149,0.81-0.084,1.317,0.477,1.318c0.093,0,0.192-0.018,0.229-0.229c0.269-1.611-0.57-2.797-0.912-2.884
	C38.636,21.861,38.731,23.001,39.149,22.911L39.149,22.911z M54.187,22.229c0.524,0.155,1.028,1.063,1.139,2.043
	c0.011,0.091,0.685-0.142,0.689-0.354c0.043-1.578-1.304-2.319-1.656-2.287C53.547,21.702,53.776,22.106,54.187,22.229
	L54.187,22.229z M46.479,26.917c1.879-0.87,2.535,0.479,1.888,0.694C47.703,27.835,47.698,26.601,46.479,26.917L46.479,26.917z
	 M23.792,58.921c-0.889-0.107,0.258-0.773,0.743-1.614c0.534-0.923,0.433-2.075,0.992-1.905c0.562,0.169,0.249,0.815-0.136,1.874
	C25.065,58.178,24.119,58.962,23.792,58.921L23.792,58.921z"/>
</svg>
