<?xml version="1.0" encoding="utf-8"?>
<!-- Generator: Adobe Illustrator 16.0.0, SVG Export Plug-In . SVG Version: 6.00 Build 0)  -->
<!DOCTYPE svg PUBLIC "-//W3C//DTD SVG 1.1//EN" "http://www.w3.org/Graphics/SVG/1.1/DTD/svg11.dtd">
<svg version="1.1" id="Layer_1" xmlns="http://www.w3.org/2000/svg" xmlns:xlink="http://www.w3.org/1999/xlink" x="0px" y="0px"
	 width="95.104px" height="94.146px" viewBox="0 0 95.104 94.146" enable-background="new 0 0 95.104 94.146" xml:space="preserve">
<path fill="#FFFFFF" d="M47.072,0C21.074,0-0.001,21.075-0.001,47.073s21.075,47.073,47.072,47.073
	c25.998,0,47.073-21.075,47.073-47.073S73.07,0,47.072,0z M32.611,72.521H21.592V37.068h11.019V72.521z M27.027,32.719
	c-3.479,0-5.799-2.468-5.727-5.512c-0.072-3.188,2.247-5.583,5.799-5.583c3.554,0,5.801,2.395,5.873,5.583
	C32.973,30.253,30.653,32.719,27.027,32.719z M61.826,72.521V52.873c0-4.564-1.597-7.685-5.583-7.685
	c-3.046,0-4.856,2.104-5.583,4.133c-0.29,0.652-0.436,1.739-0.436,2.755V72.52h-11.02V48.378c0-4.422-0.146-8.19-0.29-11.31h9.568
	l0.51,4.854h0.217c1.449-2.245,5.074-5.652,10.947-5.652c7.251,0,12.688,4.785,12.688,15.225l0.001,21.026H61.826z"/>
</svg>
