<?xml version="1.0" encoding="utf-8"?>
<!-- Generator: Adobe Illustrator 16.0.0, SVG Export Plug-In . SVG Version: 6.00 Build 0)  -->
<!DOCTYPE svg PUBLIC "-//W3C//DTD SVG 1.1//EN" "http://www.w3.org/Graphics/SVG/1.1/DTD/svg11.dtd">
<svg version="1.1" id="Layer_1" xmlns="http://www.w3.org/2000/svg" xmlns:xlink="http://www.w3.org/1999/xlink" x="0px" y="0px"
	 width="77.485px" height="67.007px" viewBox="0 0 77.485 67.007" enable-background="new 0 0 77.485 67.007" xml:space="preserve">
<g>
	<path fill="#FFFFFF" d="M73.694,13.085C73.694,5.866,67.827,0,60.614,0H26.43l-2.291,5.683h36.476c4.074,0,7.395,3.32,7.395,7.402
		c0,4.083-3.32,7.4-7.395,7.4H18.192l-2.291,5.688h44.713C67.827,26.174,73.694,20.298,73.694,13.085z"/>
	<path fill="#FFFFFF" d="M59.852,31.746H27.153L12.97,67.007h46.882c9.722,0,17.634-7.912,17.634-17.628
		C77.485,39.655,69.573,31.746,59.852,31.746z M59.852,60.953H21.934L31.25,37.8h28.602c6.39,0,11.58,5.192,11.58,11.579
		C71.432,55.767,66.241,60.953,59.852,60.953z"/>
	<path fill="#FFFFFF" d="M61.749,55.703c1.936-1.391,3.273-3.405,3.785-5.69H32.271l-2.288,5.69H61.749z"/>
	<polygon fill="#FFFFFF" points="14.184,31.746 0,67.007 6.439,67.007 20.62,31.746 	"/>
</g>
</svg>
