<?xml version="1.0" encoding="utf-8"?>
<!-- Generator: Adobe Illustrator 16.0.0, SVG Export Plug-In . SVG Version: 6.00 Build 0)  -->
<!DOCTYPE svg PUBLIC "-//W3C//DTD SVG 1.1//EN" "http://www.w3.org/Graphics/SVG/1.1/DTD/svg11.dtd">
<svg version="1.1" id="Layer_1" xmlns="http://www.w3.org/2000/svg" xmlns:xlink="http://www.w3.org/1999/xlink" x="0px" y="0px"
	 width="118.979px" height="76.406px" viewBox="0 0 118.979 76.406" enable-background="new 0 0 118.979 76.406"
	 xml:space="preserve">
<g>
	<path fill="#FFFFFF" d="M118.979,40.01c-0.518-2.06-1.686-3.73-3.18-5.193c-2.189-2.146-4.789-3.668-7.557-4.917
		c-1.31-0.59-2.656-1.091-3.986-1.631c-0.017,0.036-0.031,0.071-0.047,0.107c0.082,0.046,0.166,0.087,0.248,0.137
		c1.473,0.883,2.985,1.708,4.407,2.664c1.986,1.337,3.748,2.935,5.021,4.994c1.768,2.854,1.699,5.677-0.205,8.445
		c-0.854,1.242-1.926,2.282-3.092,3.229c-2.799,2.27-5.953,3.933-9.287,5.232c-10.127,3.952-20.666,5.553-21.012,5.599
		c0.164-3.227,0.795-6.515,0.961-9.783c-6.334,5.188-12.558,10.283-18.816,15.412c5.385,4.046,10.711,8.05,16.103,12.102
		c0.03-0.267,0.53-4.756,0.815-7.721c6.361-1.076,12.873-2.918,18.799-5.478c4.986-2.153,9.656-4.827,13.695-8.508
		c2.621-2.39,4.887-5.068,6.404-8.308C119.205,44.357,119.537,42.228,118.979,40.01z"/>
	<path fill="#FFFFFF" d="M69.801,23.327c10.125-3.952,20.664-5.553,21.01-5.596c-0.164,3.225-0.793,6.512-0.959,9.782
		c6.334-5.189,12.556-10.284,18.814-15.412C103.283,8.055,97.957,4.052,92.564,0c-0.03,0.268-0.53,4.755-0.813,7.722
		c-6.363,1.074-12.875,2.916-18.801,5.477c-3.423,1.479-6.693,3.201-9.718,5.325c1.404,1.889,2.615,3.931,3.597,6.098
		C67.801,24.153,68.791,23.721,69.801,23.327z"/>
	<path fill="#FFFFFF" d="M49.51,27.438c0-3.377-2.746-6-6.119-6H27.4l-1.071,3h17.063c1.906,0,3.459,1.092,3.459,2.998
		c0,1.91-1.553,3.002-3.459,3.002H23.547l-1.07,3h20.914C46.764,33.438,49.51,30.813,49.51,27.438z"/>
	<path fill="#FFFFFF" d="M43.035,35.438H27.74l-6.636,17h21.931c4.549,0,8.248-3.953,8.248-8.5S47.584,35.438,43.035,35.438z
		 M43.035,50.438H25.297l4.354-11h13.384c2.985,0,5.416,2.513,5.416,5.501C48.451,47.925,46.021,50.438,43.035,50.438z"/>
	<polygon fill="#FFFFFF" points="21.672,35.438 15.037,52.438 18.049,52.438 24.686,35.438 	"/>
	<path fill="#FFFFFF" d="M55.332,21.93c-5.035-6.832-13.156-11.275-22.297-11.275c-15.246,0-27.65,12.359-27.65,27.549
		c0,15.19,12.404,27.548,27.65,27.548c12.313,0,22.771-8.06,26.342-19.162c0.074-0.229,0.146-0.463,0.213-0.695
		c0.715-2.441,1.098-5.021,1.098-7.689c0-3.851-0.797-7.52-2.235-10.852C57.617,25.421,56.566,23.604,55.332,21.93z M60.053,38.203
		c0,2.54-0.355,4.998-1.021,7.329c-0.076,0.266-0.156,0.528-0.24,0.789c-3.474,10.851-13.705,18.733-25.756,18.733
		C18.14,65.054,6.02,53.008,6.02,38.202S18.139,11.35,33.036,11.35c8.95,0,16.896,4.35,21.815,11.03
		c1.215,1.65,2.246,3.441,3.062,5.346C59.291,30.949,60.053,34.489,60.053,38.203z"/>
	<path fill="#FFFFFF" d="M63.15,24.62c-0.979-2.167-2.188-4.209-3.596-6.098c-6.027-8.101-15.67-13.356-26.52-13.356
		C14.82,5.166,0,19.986,0,38.203S14.82,71.24,33.035,71.24c18.217,0,33.039-14.82,33.039-33.037
		C66.074,33.364,65.027,28.766,63.15,24.62z M33.035,67.755c-16.468,0-29.863-13.257-29.863-29.552S16.568,8.65,33.035,8.65
		c9.77,0,18.459,4.667,23.909,11.866c1.318,1.738,2.445,3.626,3.354,5.632c1.67,3.684,2.6,7.763,2.6,12.055
		c0,3.081-0.479,6.052-1.366,8.846c-0.041,0.131-0.085,0.259-0.128,0.387C57.479,59.223,46.246,67.755,33.035,67.755z"/>
	<path fill="#FFFFFF" d="M29.063,47.438h14.859c0.904-1,1.529-2,1.77-3H30.133L29.063,47.438z"/>
</g>
</svg>
