<?xml version="1.0" encoding="utf-8"?>
<!-- Generator: Adobe Illustrator 16.0.0, SVG Export Plug-In . SVG Version: 6.00 Build 0)  -->
<!DOCTYPE svg PUBLIC "-//W3C//DTD SVG 1.1//EN" "http://www.w3.org/Graphics/SVG/1.1/DTD/svg11.dtd">
<svg version="1.1" id="Layer_1" xmlns="http://www.w3.org/2000/svg" xmlns:xlink="http://www.w3.org/1999/xlink" x="0px" y="0px"
	 width="328px" height="113.559px" viewBox="0 0 328 113.559" enable-background="new 0 0 328 113.559" xml:space="preserve">
<g>
	<path fill="#FDFEFF" d="M0.877,7.191C2.625,6.857,5.386,6.608,8.19,6.608c4.003,0,6.579,0.625,8.512,2.042
		c1.609,1.085,2.575,2.751,2.575,4.963c0,2.709-1.978,5.086-5.244,6.169v0.083c2.944,0.668,6.394,2.877,6.394,7.047
		c0,2.418-1.057,4.253-2.621,5.628c-2.161,1.793-5.657,2.628-10.717,2.628c-2.761,0-4.877-0.168-6.211-0.334L0.877,7.191
		L0.877,7.191z M4.88,18.699h3.633c4.232,0,6.716-2.002,6.716-4.712c0-3.294-2.761-4.587-6.807-4.587
		C6.58,9.4,5.523,9.525,4.88,9.65V18.699z M4.88,32.166c0.781,0.125,1.932,0.166,3.357,0.166c4.14,0,7.958-1.375,7.958-5.462
		c0-3.835-3.635-5.42-8.006-5.42H4.88V32.166z"/>
	<path fill="#FDFEFF" d="M24.385,34.917v-2.251l3.174-2.794c7.638-6.587,11.086-10.09,11.133-14.175
		c0-2.752-1.473-5.295-5.936-5.295c-2.712,0-4.967,1.25-6.347,2.293l-1.288-2.586c2.07-1.584,5.014-2.751,8.465-2.751
		c6.439,0,9.153,4.003,9.153,7.88c0,5.003-4.001,9.048-10.304,14.551l-2.392,2.001v0.083h13.432v3.044H24.385z"/>
	<path fill="#FDFEFF" d="M71.078,34c-1.473,0.667-4.416,1.334-8.188,1.334c-8.739,0-15.318-5.003-15.318-14.217
		c0-8.798,6.579-14.76,16.192-14.76c3.863,0,6.303,0.75,7.359,1.252l-0.966,2.959C68.64,9.901,66.478,9.4,63.901,9.4
		c-7.268,0-12.097,4.213-12.097,11.591c0,6.88,4.368,11.3,11.913,11.3c2.437,0,4.922-0.459,6.531-1.168L71.078,34z"/>
</g>
<g>
	<path fill="#FDFEFF" d="M125.458,7.148c1.748-0.334,4.507-0.582,7.313-0.582c4.002,0,6.578,0.625,8.509,2.041
		c1.61,1.086,2.578,2.752,2.578,4.963c0,2.709-1.979,5.086-5.245,6.17v0.082c2.944,0.668,6.395,2.877,6.395,7.047
		c0,2.418-1.059,4.254-2.622,5.629c-2.162,1.793-5.659,2.627-10.719,2.627c-2.761,0-4.875-0.168-6.209-0.334V7.148L125.458,7.148z
		 M129.459,18.656h3.635c4.231,0,6.715-2.002,6.715-4.711c0-3.295-2.76-4.588-6.808-4.588c-1.84,0-2.898,0.125-3.542,0.25V18.656
		L129.459,18.656z M129.459,32.123c0.781,0.125,1.933,0.166,3.359,0.166c4.139,0,7.958-1.375,7.958-5.461
		c0-3.836-3.635-5.42-8.005-5.42h-3.313L129.459,32.123L129.459,32.123z"/>
	<path fill="#FDFEFF" d="M148.966,34.875v-2.252l3.175-2.793c7.635-6.588,11.085-10.09,11.132-14.176
		c0-2.752-1.472-5.295-5.935-5.295c-2.714,0-4.968,1.25-6.349,2.293l-1.287-2.586c2.07-1.584,5.014-2.75,8.464-2.75
		c6.439,0,9.152,4.002,9.152,7.879c0,5.004-4.001,9.049-10.304,14.551l-2.391,2.002v0.082h13.432v3.045H148.966z"/>
	<path fill="#FDFEFF" d="M173.993,7.148c1.747-0.334,4.507-0.582,7.313-0.582c4.002,0,6.577,0.625,8.51,2.041
		c1.608,1.086,2.576,2.752,2.576,4.963c0,2.709-1.979,5.086-5.244,6.17v0.082c2.943,0.668,6.395,2.877,6.395,7.047
		c0,2.418-1.059,4.254-2.621,5.629c-2.163,1.793-5.658,2.627-10.719,2.627c-2.762,0-4.875-0.168-6.209-0.334L173.993,7.148
		L173.993,7.148z M177.994,18.656h3.634c4.231,0,6.715-2.002,6.715-4.711c0-3.295-2.759-4.588-6.807-4.588
		c-1.841,0-2.897,0.125-3.542,0.25V18.656L177.994,18.656z M177.994,32.123c0.781,0.125,1.932,0.166,3.357,0.166
		c4.14,0,7.959-1.375,7.959-5.461c0-3.836-3.636-5.42-8.006-5.42h-3.312L177.994,32.123L177.994,32.123z"/>
</g>
<g>
	<path fill="#FDFEFF" d="M99.541,0v41.691h-3.082V0H99.541z"/>
	<path fill="#FDFEFF" d="M222.541,0v41.691h-3.082V0H222.541z"/>
</g>
<g>
	<path fill="#FDFEFF" d="M264.781,22.555c-0.231-3.92-0.508-8.629-0.461-12.134h-0.139c-1.059,3.295-2.346,6.798-3.91,10.675
		l-5.475,13.633h-3.035l-5.015-13.383c-1.474-3.961-2.712-7.589-3.588-10.925h-0.093c-0.09,3.505-0.32,8.214-0.598,12.425
		l-0.828,12.051h-3.816l2.16-28.103h5.106l5.29,13.595c1.288,3.459,2.346,6.545,3.127,9.463h0.141
		c0.781-2.836,1.885-5.92,3.265-9.463l5.521-13.595h5.104l1.933,28.103h-3.91L264.781,22.555z"/>
	<path fill="#FDFEFF" d="M275.641,6.795h4.002v25.058h13.248v3.045h-17.25V6.795z"/>
	<path fill="#FDFEFF" d="M323.48,22.555c-0.229-3.92-0.504-8.629-0.457-12.134h-0.141c-1.059,3.295-2.346,6.798-3.908,10.675
		L313.5,34.729h-3.035l-5.016-13.383c-1.471-3.961-2.715-7.589-3.588-10.925h-0.092c-0.092,3.505-0.322,8.214-0.598,12.425
		l-0.829,12.051h-3.817l2.164-28.103h5.104l5.29,13.595c1.287,3.459,2.347,6.545,3.128,9.463h0.139
		c0.781-2.836,1.885-5.92,3.268-9.463l5.518-13.595h5.105l1.934,28.103h-3.91L323.48,22.555z"/>
</g>
<g>
	<path fill="#FDFEFF" d="M0.655,95.07c0-2.188-0.078-3.952-0.155-5.575h3.074l0.156,2.929h0.078c1.401-2.08,3.621-3.315,6.696-3.315
		c4.554,0,7.979,3.493,7.979,8.68c0,6.14-4.127,9.173-8.563,9.173c-2.491,0-4.672-0.986-5.802-2.682H4.042v9.279H0.655V95.07z
		 M4.042,99.621c0,0.459,0.077,0.883,0.155,1.271c0.623,2.152,2.688,3.635,5.14,3.635c3.62,0,5.722-2.681,5.722-6.597
		c0-3.425-1.985-6.353-5.606-6.353c-2.335,0-4.515,1.518-5.177,3.846c-0.116,0.39-0.233,0.848-0.233,1.271L4.042,99.621
		L4.042,99.621z"/>
	<path fill="#FDFEFF" d="M22.804,81.521h3.426v25.051h-3.426V81.521z"/>
	<path fill="#FDFEFF" d="M42.425,106.572l-0.272-2.151h-0.117c-1.051,1.341-3.076,2.539-5.762,2.539
		c-3.814,0-5.763-2.435-5.763-4.903c0-4.127,4.05-6.387,11.328-6.353v-0.352c0-1.411-0.427-3.951-4.281-3.951
		c-1.75,0-3.581,0.493-4.904,1.27l-0.78-2.047c1.559-0.917,3.816-1.517,6.192-1.517c5.76,0,7.162,3.563,7.162,6.984v6.387
		c0,1.482,0.077,2.929,0.311,4.094H42.425L42.425,106.572z M41.917,97.857c-3.736-0.07-7.979,0.529-7.979,3.847
		c0,2.01,1.479,2.962,3.232,2.962c2.452,0,4.009-1.411,4.554-2.856c0.115-0.317,0.193-0.67,0.193-0.988V97.857z"/>
	<path fill="#FDFEFF" d="M54.726,84.591v4.904h4.904v2.363h-4.904v9.209c0,2.117,0.662,3.316,2.569,3.316
		c0.896,0,1.557-0.105,1.985-0.212l0.155,2.329c-0.662,0.247-1.713,0.423-3.036,0.423c-1.598,0-2.882-0.459-3.699-1.305
		c-0.974-0.918-1.323-2.436-1.323-4.445v-9.315h-2.92v-2.363h2.92v-4.093L54.726,84.591z"/>
	<path fill="#FDFEFF" d="M63.834,106.572V91.858h-2.646v-2.363h2.646v-0.811c0-2.399,0.584-4.587,2.18-5.963
		c1.284-1.129,2.998-1.589,4.595-1.589c1.206,0,2.258,0.247,2.919,0.493l-0.467,2.4c-0.507-0.213-1.207-0.389-2.18-0.389
		c-2.92,0-3.661,2.328-3.661,4.938v0.917h4.557v2.363H67.22v14.714h-3.386V106.572z"/>
	<path fill="#FDFEFF" d="M91.395,97.892c0,6.315-4.826,9.067-9.38,9.067c-5.101,0-9.032-3.387-9.032-8.784
		c0-5.718,4.126-9.067,9.343-9.067C87.736,89.107,91.395,92.671,91.395,97.892z M76.446,98.069c0,3.739,2.376,6.563,5.724,6.563
		c3.27,0,5.724-2.786,5.724-6.633c0-2.895-1.598-6.563-5.647-6.563C78.2,91.436,76.446,94.823,76.446,98.069z"/>
	<path fill="#FDFEFF" d="M95.717,94.823c0-2.011-0.039-3.74-0.156-5.328h2.997l0.117,3.353h0.155
		c0.857-2.293,2.92-3.739,5.218-3.739c0.388,0,0.66,0.036,0.972,0.105v2.929c-0.349-0.07-0.699-0.105-1.166-0.105
		c-2.415,0-4.128,1.658-4.595,3.986c-0.078,0.424-0.156,0.918-0.156,1.447v9.103h-3.386V94.823z"/>
	<path fill="#FDFEFF" d="M108.602,94.116c0-1.763-0.039-3.21-0.157-4.621h2.997l0.157,2.752h0.115
		c1.053-1.623,2.804-3.14,5.918-3.14c2.57,0,4.517,1.411,5.334,3.423h0.076c0.586-0.953,1.325-1.694,2.104-2.224
		c1.129-0.776,2.375-1.199,4.165-1.199c2.491,0,6.19,1.48,6.19,7.41v10.055h-3.348v-9.668c0-3.281-1.325-5.257-4.088-5.257
		c-1.947,0-3.465,1.306-4.049,2.823c-0.157,0.423-0.272,0.987-0.272,1.552v10.55h-3.349V96.341c0-2.718-1.323-4.692-3.93-4.692
		c-2.143,0-3.699,1.553-4.244,3.104c-0.194,0.458-0.272,0.987-0.272,1.518v10.303h-3.348L108.602,94.116L108.602,94.116z"/>
</g>
<line fill="none" stroke="#FFFFFF" stroke-width="2" stroke-miterlimit="10" x1="0" y1="59.932" x2="328" y2="59.932"/>
</svg>
