<?xml version="1.0" encoding="utf-8"?>
<!-- Generator: Adobe Illustrator 16.0.0, SVG Export Plug-In . SVG Version: 6.00 Build 0)  -->
<!DOCTYPE svg PUBLIC "-//W3C//DTD SVG 1.1//EN" "http://www.w3.org/Graphics/SVG/1.1/DTD/svg11.dtd">
<svg version="1.1" id="Layer_1" xmlns="http://www.w3.org/2000/svg" xmlns:xlink="http://www.w3.org/1999/xlink" x="0px" y="0px"
	 width="160px" height="107.098px" viewBox="0 0 160 107.098" enable-background="new 0 0 160 107.098" xml:space="preserve">
<g>
	<circle fill="#056184" cx="135.099" cy="59.643" r="11.882"/>
	<path fill="#056184" d="M61.94,15.215c-21.495,0-38.982,17.308-38.982,38.578c0,21.272,17.487,38.576,38.982,38.576
		c21.498,0,38.983-17.304,38.983-38.576C100.924,32.522,83.438,15.215,61.94,15.215z M61.94,89.752
		c-19.903,0-36.097-16.131-36.097-35.959S42.037,17.831,61.94,17.831s36.099,16.134,36.099,35.962S81.844,89.752,61.94,89.752z"/>
	<path fill="#056184" d="M61.94,18.74c-19.447,0-35.269,15.725-35.269,35.053S42.493,88.844,61.94,88.844
		c19.449,0,35.27-15.723,35.27-35.051S81.39,18.74,61.94,18.74z M50.541,47.098h23.53c2.263,0,4.104-1.836,4.104-4s-1.842-4-4.104-4
		H53.838l1.271-3h18.962c4.003,0,7.259,3.174,7.259,7s-3.256,7-7.259,7h-24.8L50.541,47.098z M40.449,71.098l7.871-18h3.57
		l-7.869,18H40.449z M73.652,71.098H47.646l7.867-18h18.139c5.393,0,9.779,3.847,9.779,8.998
		C83.432,67.251,79.045,71.098,73.652,71.098z"/>
	<path fill="#056184" d="M160,17.867c0-9.281-11.506-16.77-25.498-16.77H25.764C11.771,1.098,0,8.586,0,17.867v72.117
		c0,9.281,11.771,17.113,25.764,17.113h108.738c13.992,0,25.498-7.832,25.498-17.113V75.849l-26,0.087
		c-8-0.07-15.729-7.176-15.729-15.935c0-8.803,7.177-15.627,15.979-15.627c1.235,0,1.723-0.155,3.63-0.276H160V17.867z
		 M61.94,96.918c-23.777,0-43.125-19.347-43.125-43.125c0-23.779,19.348-43.127,43.125-43.127c23.779,0,43.127,19.348,43.127,43.127
		C105.067,77.571,85.72,96.918,61.94,96.918z"/>
	<path fill="#056184" d="M73.652,56.098h-15.87l-5.166,12h21.036c3.54,0,6.422-2.614,6.422-6.001
		C80.074,58.713,77.192,56.098,73.652,56.098z M74.703,65.098H57.082l1.27-3h18.451C76.516,64.098,75.775,65.098,74.703,65.098z"/>
</g>
</svg>
