<?xml version="1.0" encoding="utf-8"?>
<!-- Generator: Adobe Illustrator 16.0.0, SVG Export Plug-In . SVG Version: 6.00 Build 0)  -->
<!DOCTYPE svg PUBLIC "-//W3C//DTD SVG 1.1//EN" "http://www.w3.org/Graphics/SVG/1.1/DTD/svg11.dtd">
<svg version="1.1" id="Layer_1" xmlns="http://www.w3.org/2000/svg" xmlns:xlink="http://www.w3.org/1999/xlink" x="0px" y="0px"
	 width="36.615px" height="29.83px" viewBox="0 0 36.615 29.83" enable-background="new 0 0 36.615 29.83" xml:space="preserve">
<g>
	<g>
		<g>
			<path fill="#056184" d="M34.952,315.653c0-3.384-2.875-6.131-6.412-6.131H11.798l-1.123,2.664H28.54
				c2.001,0,3.627,1.554,3.627,3.467c0,1.908-1.626,3.465-3.627,3.465H7.762l-1.12,2.66H28.54
				C32.077,321.778,34.952,319.03,34.952,315.653z"/>
		</g>
		<g>
			<path fill="#056184" d="M28.171,324.387H12.155l-6.95,16.513h22.966c4.764,0,8.637-3.704,8.637-8.257
				C36.808,328.093,32.935,324.387,28.171,324.387z M28.171,338.064H9.595l4.562-10.845h14.015c3.128,0,5.67,2.434,5.67,5.423
				C33.841,335.634,31.299,338.064,28.171,338.064z"/>
		</g>
		<g>
			<path fill="#056184" d="M29.099,335.604c0.948-0.651,1.602-1.594,1.854-2.664H14.661l-1.121,2.664H29.099z"/>
		</g>
		<g>
			<polygon fill="#056184" points="5.801,324.387 -1.149,340.899 2.005,340.899 8.953,324.387 			"/>
		</g>
	</g>
	<g>
		<path fill="#056184" d="M17.829,361.688c-20.193,0-36.62-16.363-36.62-36.476c0-20.114,16.427-36.478,36.62-36.478
			c20.194,0,36.623,16.363,36.623,36.478C54.452,345.324,38.023,361.688,17.829,361.688z M17.829,289.536
			c-19.787,0-35.887,16.003-35.887,35.676c0,19.669,16.1,35.676,35.887,35.676c19.789,0,35.89-16.007,35.89-35.676
			C53.719,305.539,37.618,289.536,17.829,289.536z"/>
	</g>
	<g>
		<g>
			<path fill="#056184" d="M17.829,363.296c-20.998,0-38.083-17.086-38.083-38.084c0-21,17.085-38.084,38.083-38.084
				c21.001,0,38.086,17.084,38.086,38.084C55.915,346.21,38.83,363.296,17.829,363.296z M17.829,291.144
				c-18.98,0-34.425,15.282-34.425,34.068c0,18.785,15.444,34.066,34.425,34.066c18.984,0,34.426-15.281,34.426-34.066
				C52.255,306.426,36.813,291.144,17.829,291.144z"/>
		</g>
		<g>
			<path fill="#056184" d="M17.829,356.968c-17.578,0-31.875-14.246-31.875-31.756s14.297-31.758,31.875-31.758
				c17.577,0,31.878,14.248,31.878,31.758S35.406,356.968,17.829,356.968z M17.829,294.258c-17.174,0-31.146,13.887-31.146,30.954
				c0,17.069,13.973,30.952,31.146,30.952s31.145-13.883,31.145-30.952C48.974,308.145,35.003,294.258,17.829,294.258z"/>
		</g>
	</g>
</g>
<g>
	<rect x="5.103" y="376.722" fill="#056184" width="27" height="10"/>
	<rect x="-12.897" y="391.722" fill="#056184" width="62" height="4"/>
	<path fill="#056184" d="M94.097,279.765c-1.302-1.301-3.027-2.043-4.882-2.043h-142.65c-1.853,0-3.866,0.742-5.169,2.043
		c-1.301,1.301-2.293,3.064-2.293,4.919v81.497c0,1.852,0.992,3.583,2.293,4.884c1.303,1.302,3.18,2.013,5.033,2.013
		c-3.813,0-6.783-3.086-6.783-6.896c0,3.79,3.047,6.66,6.832,6.693c0.012,0.014,0.063-0.152,0.087-0.152H3.938H3.96h27.896h0.018
		h57.341c0.062,0-0.112,0-0.112,0v0.204c2,0,3.588-0.677,4.848-1.936c1.301-1.301,2.152-2.958,2.152-4.81v-81.497
		C96.103,282.829,95.396,281.065,94.097,279.765z M-44.093,365.722h-9.805v-82H79.287h9.815v82H-44.093z M-53.513,373.008
		c0.002,0,0.035-0.088,0.1-0.164c-0.068,0.083-0.101,0.139-0.093,0.174c-0.002-0.002-0.005-0.01-0.005-0.01H-53.513z
		 M-53.505,373.027L-53.505,373.027l0.001,0.003L-53.505,373.027z"/>
</g>
<g>
	<circle fill="#056184" cx="318.869" cy="21.384" r="11.882"/>
	<path fill="#056184" d="M245.71-23.044c-21.495,0-38.982,17.308-38.982,38.578c0,21.272,17.487,38.576,38.982,38.576
		c21.498,0,38.983-17.304,38.983-38.576C284.693-5.736,267.208-23.044,245.71-23.044z M245.71,51.493
		c-19.903,0-36.097-16.131-36.097-35.959s16.193-35.962,36.097-35.962s36.099,16.134,36.099,35.962S265.613,51.493,245.71,51.493z"
		/>
	<path fill="#056184" d="M245.71-19.519c-19.447,0-35.269,15.725-35.269,35.053s15.821,35.051,35.269,35.051
		c19.449,0,35.27-15.723,35.27-35.051S265.159-19.519,245.71-19.519z M234.311,8.839h23.53c2.263,0,4.104-1.836,4.104-4
		s-1.842-4-4.104-4h-20.233l1.271-3h18.962c4.003,0,7.259,3.174,7.259,7s-3.256,7-7.259,7h-24.8L234.311,8.839z M224.219,32.839
		l7.871-18h3.57l-7.869,18H224.219z M257.422,32.839h-26.006l7.867-18h18.139c5.393,0,9.779,3.847,9.779,8.998
		C267.201,28.992,262.814,32.839,257.422,32.839z"/>
	<path fill="#056184" d="M343.77-20.392c0-9.281-11.506-16.77-25.498-16.77H209.533c-13.992,0-25.764,7.488-25.764,16.77v72.117
		c0,9.281,11.771,17.113,25.764,17.113h108.738c13.992,0,25.498-7.832,25.498-17.113V37.59l-26,0.087
		c-8-0.07-15.729-7.176-15.729-15.935c0-8.803,7.177-15.627,15.979-15.627c1.235,0,1.723-0.155,3.63-0.276h22.119V-20.392z
		 M245.71,58.659c-23.777,0-43.125-19.347-43.125-43.125c0-23.779,19.348-43.127,43.125-43.127
		c23.779,0,43.127,19.348,43.127,43.127C288.837,39.313,269.489,58.659,245.71,58.659z"/>
	<path fill="#056184" d="M257.422,17.839h-15.87l-5.166,12h21.036c3.54,0,6.422-2.614,6.422-6.001
		C263.844,20.454,260.962,17.839,257.422,17.839z M258.473,26.839h-17.621l1.27-3h18.451
		C260.285,25.839,259.545,26.839,258.473,26.839z"/>
</g>
<g>
	<rect x="-158.897" y="70.722" fill="#22ABCA" width="19" height="148"/>
	<rect x="-123.897" y="110.722" fill="#22ABCA" width="19" height="108"/>
	<rect x="-88.897" y="156.722" fill="#22ABCA" width="19" height="62"/>
	<rect x="-55.897" y="187.722" fill="#22ABCA" width="19" height="31"/>
</g>
<g>
	<g>
		<polygon fill="#1EABCA" points="360.186,446.402 349.574,435.801 393.626,391.707 349.574,347.611 360.186,337.01 
			414.829,391.707 		"/>
	</g>
	<g>
		<polygon fill="#1EABCA" points="246.842,446.402 192.198,391.707 246.842,337.01 257.453,347.611 213.401,391.707 
			257.453,435.801 		"/>
	</g>
	<g>
		
			<rect x="294.924" y="315.597" transform="matrix(0.9715 0.2371 -0.2371 0.9715 100.6751 -60.6365)" fill="#1EABCA" width="15" height="145.25"/>
	</g>
</g>
<path fill="#FFFFFF" d="M33.183-65.294H16.368l-1.191-1.716l0,0c-0.461-0.643-1.362-1.077-2.399-1.077H3.433
	c-1.506,0-2.726,0.918-2.726,2.053v21.365c0,1.134,1.22,2.055,2.726,2.055h29.75c1.505,0,2.725-0.92,2.725-2.055v-18.572
	C35.908-64.375,34.688-65.294,33.183-65.294z"/>
<path fill="#056184" d="M36.615-40.393c0,1.179-1.27,2.134-2.836,2.134H2.834C1.269-38.259,0-39.214,0-40.393V-59.71
	c0-1.179,1.269-2.136,2.834-2.136h30.944c1.566,0,2.836,0.957,2.836,2.136V-40.393z"/>
<polygon fill="#FFFFFF" points="21.103,-48.278 21.103,-59.278 16.103,-59.278 16.103,-48.278 11.39,-48.278 18.308,-41.555 
	25.226,-48.278 "/>
<path fill="#22ABCA" d="M33.183,2.794H16.368l-1.191-1.718l0,0C14.716,0.435,13.815,0,12.778,0H3.433
	C1.926,0,0.707,0.918,0.707,2.052v21.366c0,1.134,1.22,2.053,2.726,2.053h29.75c1.505,0,2.725-0.919,2.725-2.053V4.846
	C35.908,3.713,34.688,2.794,33.183,2.794z"/>
<path fill="#056184" d="M36.615,27.694c0,1.179-1.27,2.135-2.836,2.135H2.834C1.269,29.83,0,28.873,0,27.694V8.376
	c0-1.179,1.269-2.134,2.834-2.134h30.944c1.566,0,2.836,0.956,2.836,2.134V27.694z"/>
<polygon fill="#FFFFFF" points="21.103,19.722 21.103,9.722 16.103,9.722 16.103,19.722 11.39,19.722 18.308,26.447 25.226,19.722 
	"/>
</svg>
