<?xml version="1.0" encoding="utf-8"?>
<!-- Generator: Adobe Illustrator 16.0.0, SVG Export Plug-In . SVG Version: 6.00 Build 0)  -->
<!DOCTYPE svg PUBLIC "-//W3C//DTD SVG 1.1//EN" "http://www.w3.org/Graphics/SVG/1.1/DTD/svg11.dtd">
<svg version="1.1" id="Layer_1" xmlns="http://www.w3.org/2000/svg" xmlns:xlink="http://www.w3.org/1999/xlink" x="0px" y="0px"
	 width="94.146px" height="95.715px" viewBox="0 0 94.146 95.715" enable-background="new 0 0 94.146 95.715" xml:space="preserve">
<g>
	<path fill="#006083" d="M56.273,44.616c-2.979,0-5.332,2.612-5.332,5.8c0,3.188,2.404,5.799,5.332,5.799
		c2.979,0,5.33-2.609,5.33-5.799C61.604,47.229,59.252,44.616,56.273,44.616z"/>
	<path fill="#006083" d="M37.201,44.616c-2.979,0-5.33,2.612-5.33,5.8c0,3.188,2.402,5.799,5.33,5.799
		c2.979,0,5.328-2.609,5.328-5.799C42.582,47.229,40.178,44.616,37.201,44.616z"/>
	<path fill="#006083" d="M47.072,0C21.076,0,0,21.075,0,47.073s21.076,47.072,47.072,47.072c25.998,0,47.074-21.074,47.074-47.072
		S73.07,0,47.072,0z M63.424,69.018L63.424,69.018c0,0.002-2.844-2.246-4.414-4.229c6.85-1.935,8.846-6.22,8.846-6.22
		c-2.145,1.412-4.354,2.404-6.184,3.084c-2.611,1.099-5.207,1.828-7.664,2.246c-5.016,0.939-9.656,0.681-13.576-0.051
		c-2.979-0.576-5.563-1.412-7.703-2.248c-1.201-0.473-2.521-1.045-3.824-1.777c-0.158-0.104-0.318-0.155-0.475-0.26
		c-0.105-0.057-0.16-0.104-0.215-0.158c-0.939-0.522-1.465-0.887-1.465-0.887s2.508,4.178,9.145,6.164
		c-1.568,1.984-3.5,4.336-3.5,4.336c-11.549-0.365-15.938-7.938-15.938-7.938c0-16.827,7.525-30.466,7.525-30.466
		c7.521-5.645,14.682-5.486,14.682-5.486l0.523,0.627c-9.408,2.717-13.742,6.844-13.742,6.844s1.146-0.627,3.082-1.516
		c5.592-2.455,10.033-3.135,11.863-3.29c0.313-0.054,0.57-0.104,0.887-0.104c3.504-0.458,7.045-0.491,10.557-0.105
		c4.963,0.574,10.293,2.038,15.729,5.016c0,0-4.127-3.918-13.014-6.635l0.732-0.836c0,0,7.295-0.158,14.82,5.486
		c0,0,8.352,13.639,8.352,30.465C78.451,61.077,73.146,68.652,63.424,69.018z"/>
</g>
</svg>
