<?xml version="1.0" encoding="utf-8"?>
<!-- Generator: Adobe Illustrator 16.0.0, SVG Export Plug-In . SVG Version: 6.00 Build 0)  -->
<!DOCTYPE svg PUBLIC "-//W3C//DTD SVG 1.1//EN" "http://www.w3.org/Graphics/SVG/1.1/DTD/svg11.dtd">
<svg version="1.1" id="Layer_1" xmlns="http://www.w3.org/2000/svg" xmlns:xlink="http://www.w3.org/1999/xlink" x="0px" y="0px"
	 width="151px" height="47px" viewBox="0 0 151 47" enable-background="new 0 0 151 47" xml:space="preserve">
<path fill="#22ABCA" d="M151,40.523c0,3.498-3.214,6.477-7.123,6.477H7.075C3.168,47,0,44.021,0,40.523V5.688
	C0,2.19,3.168,0,7.075,0h136.802C147.786,0,151,2.19,151,5.688V40.523z"/>
<path fill="#FFFFFF" d="M48.081,10.984H31.266l-1.191-1.716l0,0c-0.461-0.643-1.362-1.077-2.399-1.077H18.33
	c-1.506,0-2.726,0.918-2.726,2.053v21.365c0,1.134,1.22,2.055,2.726,2.055h29.75c1.505,0,2.725-0.92,2.725-2.055V13.036
	C50.806,11.903,49.586,10.984,48.081,10.984z"/>
<path fill="#056184" d="M51.512,35.886c0,1.179-1.27,2.134-2.836,2.134H17.732c-1.565,0-2.834-0.955-2.834-2.134V16.568
	c0-1.179,1.269-2.136,2.834-2.136h30.944c1.566,0,2.836,0.957,2.836,2.136V35.886z"/>
<polygon fill="#FFFFFF" points="36,28 36,17 31,17 31,28 26.287,28 33.205,34.724 40.124,28 "/>
<g>
	<path fill="#FFFFFF" d="M64.831,27.059l3.214-0.391c0.102,0.82,0.378,1.447,0.827,1.879c0.449,0.435,0.993,0.651,1.631,0.651
		c0.686,0,1.262-0.26,1.732-0.78c0.468-0.521,0.703-1.221,0.703-2.103c0-0.836-0.225-1.498-0.674-1.986
		c-0.449-0.489-0.997-0.733-1.643-0.733c-0.425,0-0.934,0.082-1.525,0.248l0.367-2.706c0.897,0.023,1.583-0.172,2.057-0.584
		c0.473-0.415,0.708-0.964,0.708-1.65c0-0.583-0.173-1.049-0.52-1.394c-0.345-0.347-0.808-0.52-1.382-0.52
		c-0.569,0-1.053,0.197-1.454,0.591c-0.402,0.394-0.646,0.969-0.733,1.724l-3.061-0.52c0.212-1.046,0.532-1.884,0.962-2.51
		c0.43-0.628,1.028-1.12,1.797-1.479c0.768-0.358,1.628-0.537,2.581-0.537c1.632,0,2.938,0.521,3.924,1.56
		c0.812,0.851,1.217,1.811,1.217,2.883c0,1.521-0.831,2.734-2.494,3.64c0.993,0.213,1.787,0.69,2.382,1.43
		c0.594,0.739,0.893,1.635,0.893,2.682c0,1.521-0.556,2.816-1.667,3.889c-1.111,1.071-2.493,1.606-4.147,1.606
		c-1.568,0-2.867-0.45-3.901-1.353C65.594,29.695,64.995,28.517,64.831,27.059z"/>
	<path fill="#FFFFFF" d="M89.624,28.571v3.085h-11.64c0.125-1.167,0.504-2.271,1.134-3.314c0.629-1.044,1.875-2.429,3.736-4.155
		c1.497-1.395,2.413-2.341,2.752-2.836c0.457-0.686,0.686-1.362,0.686-2.033c0-0.74-0.201-1.311-0.598-1.709
		c-0.397-0.396-0.947-0.597-1.649-0.597c-0.692,0-1.244,0.21-1.655,0.628c-0.409,0.417-0.645,1.111-0.708,2.08l-3.31-0.331
		c0.197-1.829,0.815-3.14,1.855-3.937c1.04-0.796,2.339-1.193,3.9-1.193c1.709,0,3.052,0.46,4.029,1.383
		c0.977,0.921,1.465,2.068,1.465,3.44c0,0.779-0.139,1.521-0.419,2.227s-0.722,1.443-1.329,2.215
		c-0.402,0.512-1.127,1.249-2.175,2.21c-1.047,0.961-1.711,1.599-1.991,1.915c-0.281,0.315-0.506,0.622-0.68,0.921H89.624z"/>
	<path fill="#FFFFFF" d="M99.339,14.331h6.924c1.372,0,2.394,0.058,3.068,0.172c0.673,0.113,1.275,0.352,1.808,0.715
		c0.53,0.362,0.975,0.846,1.329,1.447c0.354,0.603,0.533,1.278,0.533,2.027c0,0.812-0.22,1.557-0.657,2.234
		c-0.436,0.677-1.029,1.185-1.778,1.524c1.056,0.307,1.867,0.831,2.435,1.573c0.566,0.739,0.85,1.611,0.85,2.611
		c0,0.787-0.184,1.553-0.551,2.298c-0.365,0.744-0.865,1.339-1.499,1.784c-0.635,0.446-1.417,0.719-2.347,0.821
		c-0.583,0.063-1.989,0.103-4.219,0.119h-5.896V14.331z M102.837,17.214v4.006h2.292c1.363,0,2.21-0.02,2.542-0.059
		c0.599-0.071,1.069-0.277,1.412-0.621c0.343-0.342,0.514-0.792,0.514-1.352c0-0.536-0.148-0.971-0.443-1.307
		c-0.296-0.336-0.736-0.539-1.318-0.609c-0.348-0.04-1.344-0.059-2.991-0.059H102.837z M102.837,24.104v4.633h3.238
		c1.261,0,2.061-0.037,2.399-0.109c0.521-0.093,0.944-0.324,1.271-0.689c0.326-0.367,0.49-0.856,0.49-1.471
		c0-0.521-0.126-0.963-0.378-1.324c-0.252-0.364-0.616-0.627-1.093-0.792c-0.478-0.167-1.511-0.249-3.103-0.249H102.837z"/>
	<path fill="#FFFFFF" d="M116.699,31.656V14.331h3.498v17.325H116.699z"/>
	<path fill="#FFFFFF" d="M127.43,31.656V17.261h-5.141v-2.93h13.768v2.93h-5.128v14.395H127.43z"/>
</g>
</svg>
