<?xml version="1.0" encoding="utf-8"?>
<!-- Generator: Adobe Illustrator 16.0.0, SVG Export Plug-In . SVG Version: 6.00 Build 0)  -->
<!DOCTYPE svg PUBLIC "-//W3C//DTD SVG 1.1//EN" "http://www.w3.org/Graphics/SVG/1.1/DTD/svg11.dtd">
<svg version="1.1" id="Layer_1" xmlns="http://www.w3.org/2000/svg" xmlns:xlink="http://www.w3.org/1999/xlink" x="0px" y="0px"
	 width="95.103px" height="94.146px" viewBox="0 0 95.103 94.146" enable-background="new 0 0 95.103 94.146" xml:space="preserve">
<path fill="#056184" d="M47.072,0C21.076,0,0,21.075,0,47.073s21.076,47.072,47.072,47.072c25.998,0,47.074-21.074,47.074-47.072
	S73.07,0,47.072,0z M32.61,72.521H21.592V37.068H32.61V72.521z M27.027,32.719c-3.479,0-5.799-2.466-5.726-5.51
	c-0.073-3.19,2.247-5.583,5.798-5.583c3.554,0,5.801,2.393,5.873,5.583C32.973,30.253,30.653,32.719,27.027,32.719z M72.846,72.521
	h-11.02V52.873c0-4.566-1.596-7.685-5.583-7.685c-3.045,0-4.857,2.104-5.583,4.133c-0.29,0.652-0.435,1.739-0.435,2.755v20.444
	h-11.02V48.378c0-4.422-0.145-8.192-0.29-11.31h9.569l0.509,4.856h0.217c1.449-2.247,5.074-5.654,10.947-5.654
	c7.251,0,12.688,4.785,12.688,15.225V72.521z"/>
</svg>
