<?xml version="1.0" encoding="utf-8"?>
<!-- Generator: Adobe Illustrator 16.0.0, SVG Export Plug-In . SVG Version: 6.00 Build 0)  -->
<!DOCTYPE svg PUBLIC "-//W3C//DTD SVG 1.1//EN" "http://www.w3.org/Graphics/SVG/1.1/DTD/svg11.dtd">
<svg version="1.1" id="Layer_1" xmlns="http://www.w3.org/2000/svg" xmlns:xlink="http://www.w3.org/1999/xlink" x="0px" y="0px"
	 width="143.34px" height="72.51px" viewBox="0 0 143.34 72.51" enable-background="new 0 0 143.34 72.51" xml:space="preserve">
<g>
	<path fill="#FFFFFF" d="M51.225,25.787l-0.071-0.023l-0.004,0.012C51.175,25.779,51.199,25.783,51.225,25.787z"/>
	<path fill="#FFFFFF" d="M106.617,35.406c-4.335-2.961-8.818-6.021-13.186-9.101c-6.761-4.765-13.67-6.637-21.22-5.762
		c-1.549,0.179-1.985,0.455-2.457,1.558c-2.698,6.331-7.012,7.66-10.156,7.66c-2.479-0.021-4.791-0.383-7.24-0.766
		c-1.082-0.17-2.188-0.344-3.326-0.488l-1.741-0.224l5.817-19.946c-4.933,1.093-8.768,3.893-12.508,9.037
		c-0.603,0.83-4.57,6.616-8.408,12.213c-2.101,3.063-4.2,6.125-5.788,8.433l3.492,1.938c0.837-0.714,1.642-1.454,2.425-2.177
		c2.343-2.156,4.555-4.193,7.293-5.273c1.073-0.423,2.145-0.638,3.186-0.638c3.253,0,6.178,2.124,8.158,5.875
		c1.575-0.35,2.869-0.514,4.007-0.514c4.246,0,6.612,2.378,8.828,6.281c4.483-0.64,7.787,0.202,9.909,2.481
		c1.814,1.948,2.673,4.918,2.557,8.833c3.977,1.791,6.592,4.362,7.407,7.315c0.367,1.33,0.498,3.23-0.5,5.446
		c0.19,0.024,0.38,0.051,0.567,0.077c1.197,0.165,2.3,0.271,2.838,0.023c1.603-0.732,2.482-2.075,1.574-6.238L87.393,58l3.008,1.855
		c0.324,0.199,0.643,0.402,0.957,0.604c1.645,1.047,3.063,1.95,4.442,1.95c0.611,0,1.22-0.182,1.857-0.552
		c0.731-0.426,2.963-2.069,1.956-5.858l-0.5-2.233h1.949c0.858,0,1.713,0.417,2.539,0.483c0.781,0.063,1.521,0.297,2.219,0.297
		c0.892,0,1.563-0.011,2.111-0.224c1.616-0.622,2.479-1.865,1.438-6.128l-0.626-2.54l2.521,0.783c0.45,0.14,0.857,0.285,1.237,0.418
		c0.661,0.232,1.185,0.417,1.658,0.475c2.144,0.262,3.589-0.55,4.505-2.606c0.396-0.891,0.389-1.037-1.182-1.93
		c-0.355-0.203-0.707-0.405-1.021-0.623C113.193,39.898,109.904,37.652,106.617,35.406z"/>
	<path fill="#FFFFFF" d="M26.028,0.006L0,34.61l15.25,9.856l24.306-35.19L26.028,0.006z M11.605,38.522
		c-0.129,0.01-0.257,0.015-0.384,0.015c-2.93,0-5.457-2.514-5.52-5.486c-0.031-1.493,0.534-3.207,1.592-4.287
		c1.072-1.096,2.506-1.997,4.035-1.997h0.005c1.587,0,3.102,0.94,4.154,2.063c1.016,1.082,1.522,2.647,1.428,4.138
		C16.718,36.122,14.732,38.292,11.605,38.522z"/>
	<path fill="#FFFFFF" d="M143.34,34.599L117.303,0c-4.632,3.179-9.027,6.194-13.521,9.276l24.316,35.19L143.34,34.599z
		 M126.339,32.764c0.103-3.093,2.808-5.586,5.97-5.375c3.104,0.202,5.094,2.223,5.324,5.407c0.102,1.398-0.408,2.777-1.438,3.884
		c-1.105,1.188-2.633,1.869-4.189,1.869h-0.001c-1.556-0.019-3.021-0.666-4.087-1.779C126.868,35.674,126.293,34.214,126.339,32.764
		z"/>
	<path fill="#FFFFFF" d="M96.857,10.693c-6.107-1.903-12.246-3.74-18.241-5.458c-0.982-0.281-2.036-0.356-2.828-0.2
		c-4.299,0.848-9.966,2.004-15.668,3.43c-0.604,0.149-1.417,0.903-1.563,1.335c-1.22,3.647-2.279,7.302-3.4,11.169
		c-0.257,0.888-0.516,1.78-0.778,2.679c1.769,0.517,3.157,0.76,4.303,0.76c2.508,0,4.356-1.01,6.942-6.337
		c0.563-1.157,1.934-2.508,3.366-2.728c2.267-0.341,4.487-0.514,6.606-0.514c7.021,0,13.405,1.9,18.973,5.65
		c4.931,3.319,9.906,6.741,14.719,10.051c1.41,0.971,2.82,1.94,4.232,2.909c-5.18-7.924-10.295-15.293-14.77-21.663
		C98.48,11.394,97.738,10.968,96.857,10.693z"/>
	<path fill="#FFFFFF" d="M69.346,49.579c-0.809-0.67-1.786-1.038-2.753-1.038c-0.714,0-1.752,0.204-2.634,1.18
		c-3.145,3.476-6.778,7.624-9.883,12.036c-0.554,0.788-1.32,3.729,0.273,4.993c1.602,1.271,2.359,1.417,2.79,1.417
		c0.751,0,1.61-0.521,2.913-1.312l0.233-0.142c3.798-4.204,7.048-8.067,9.931-11.804C71.558,53.174,70.809,50.791,69.346,49.579z"/>
	<path fill="#FFFFFF" d="M54.545,42.563c-1.11,0-2.125,0.478-2.937,1.379c-2.773,3.082-5.948,6.691-8.534,10.525
		c-0.651,0.965-0.841,3.027-0.337,3.678c0.908,1.171,2.569,1.958,4.132,1.958c1.054,0,1.991-0.343,2.788-1.02
		c2.859-3.129,5.563-6.495,8.06-9.67c1.464-1.863,1.34-4.143-0.309-5.668C56.584,42.982,55.566,42.563,54.545,42.563z"/>
	<path fill="#FFFFFF" d="M41.983,37.408c-1.066,0-2.043,0.433-2.827,1.25l-0.441,0.461c-2.125,2.214-4.322,4.502-5.804,7.045
		c-0.793,1.357-1.008,3.591-0.417,4.345c1.151,1.467,2.757,1.687,3.611,1.687c1.264,0,2.522-0.469,3.365-1.254
		c1.58-1.47,2.888-3.212,4.272-5.057c0.463-0.617,0.925-1.233,1.397-1.838c1.505-1.929,1.365-3.999-0.374-5.537
		C43.964,37.799,42.976,37.408,41.983,37.408z"/>
	<path fill="#FFFFFF" d="M74.094,59.888c-0.865,0-1.814,0.508-2.744,1.469c-1.374,1.424-2.758,3.059-4.351,5.141
		c-1.431,1.871-1.231,4.128,0.496,5.614c1.477,1.271,3.628,0.815,5.237-0.923c1.521-1.643,3.236-3.586,4.43-5.543
		c0.568-0.935,0.447-2.458-0.303-3.791C76.168,60.623,75.134,59.888,74.094,59.888z"/>
</g>
</svg>
