<?xml version="1.0" encoding="utf-8"?>
<!-- Generator: Adobe Illustrator 16.0.0, SVG Export Plug-In . SVG Version: 6.00 Build 0)  -->
<!DOCTYPE svg PUBLIC "-//W3C//DTD SVG 1.1//EN" "http://www.w3.org/Graphics/SVG/1.1/DTD/svg11.dtd">
<svg version="1.1" id="Layer_1" xmlns="http://www.w3.org/2000/svg" xmlns:xlink="http://www.w3.org/1999/xlink" x="0px" y="0px"
	 width="328px" height="113.559px" viewBox="0 0 328 113.559" enable-background="new 0 0 328 113.559" xml:space="preserve">
<g>
	<path fill="#FDFEFF" d="M99.541,0v41.691h-3.082V0H99.541z"/>
	<path fill="#FDFEFF" d="M222.541,0v41.691h-3.082V0H222.541z"/>
</g>
<line fill="none" stroke="#FFFFFF" stroke-width="2" stroke-miterlimit="10" x1="0" y1="59.932" x2="328" y2="59.932"/>
<g>
	<path fill="#FDFEFF" d="M103.552,113.559h-2.85v-23.16h2.85v1.887c0.57-0.664,1.354-1.205,2.352-1.619
		c0.998-0.416,2.031-0.625,3.1-0.625c2.281,0,4.074,0.762,5.381,2.281c1.354,1.496,2.031,3.443,2.031,5.844
		c0,2.445-0.771,4.502-2.316,6.164c-1.52,1.639-3.527,2.459-6.021,2.459c-1.924,0-3.434-0.369-4.525-1.105V113.559z M108.185,92.713
		c-1.9,0-3.445,0.738-4.633,2.209v7.947c1.26,0.832,2.684,1.246,4.275,1.246c1.688,0,3.035-0.539,4.045-1.621
		c1.01-1.08,1.514-2.488,1.514-4.223c0-1.686-0.463-3.033-1.389-4.043S109.8,92.713,108.185,92.713z"/>
	<path fill="#FDFEFF" d="M120.513,102.156V81.49h2.85v19.383c0,2.115,0.629,3.172,1.889,3.172c0.617,0,1.295-0.238,2.031-0.713
		l0.641,2.174c-1.021,0.807-2.279,1.211-3.777,1.211C121.724,106.717,120.513,105.197,120.513,102.156z"/>
	<path fill="#FDFEFF" d="M131.7,93.783l-0.748-2.281c1.592-0.973,3.373-1.461,5.346-1.461c2.16,0,3.729,0.535,4.701,1.604
		c0.975,1.068,1.463,2.721,1.463,4.953v9.834h-2.709v-2.066c-1.26,1.545-2.969,2.316-5.131,2.316c-1.473,0-2.66-0.445-3.563-1.336
		c-0.904-0.891-1.354-2.098-1.354-3.617c0-1.568,0.557-2.809,1.674-3.725c1.115-0.914,2.576-1.371,4.383-1.371
		c1.686,0,3.016,0.346,3.99,1.033c0-1.805-0.25-3.1-0.748-3.883c-0.498-0.785-1.461-1.176-2.887-1.176
		C134.669,92.607,133.196,92.998,131.7,93.783z M135.62,104.115c1.592,0,2.969-0.688,4.133-2.066v-2.031
		c-0.998-0.713-2.197-1.068-3.6-1.068c-0.973,0-1.787,0.23-2.439,0.695c-0.654,0.463-0.98,1.109-0.98,1.941
		c0,0.783,0.256,1.402,0.766,1.854C134.011,103.891,134.718,104.115,135.62,104.115z"/>
	<path fill="#FDFEFF" d="M146.878,100.338V85.943h2.852v4.455h5.879v2.672h-5.879v6.982c0,2.662,0.949,3.992,2.85,3.992
		c0.928,0,1.77-0.297,2.531-0.891l0.891,2.209c-1.117,0.902-2.482,1.354-4.098,1.354c-1.734,0-3.006-0.523-3.813-1.568
		C147.282,104.104,146.878,102.5,146.878,100.338z"/>
	<path fill="#FDFEFF" d="M163.021,106.432h-2.852V87.797c0-2.186,0.486-3.842,1.461-4.971c0.973-1.129,2.363-1.693,4.17-1.693
		c1.875,0,3.301,0.477,4.275,1.426l-0.998,2.174c-0.76-0.617-1.699-0.926-2.814-0.926c-2.162,0-3.242,1.438-3.242,4.311v2.281h5.344
		v2.672h-5.344V106.432z"/>
	<path fill="#FDFEFF" d="M172.532,104.436c-1.566-1.613-2.352-3.621-2.352-6.021c0-2.422,0.785-4.418,2.352-5.986
		c1.592-1.59,3.658-2.387,6.201-2.387c2.541,0,4.596,0.797,6.164,2.387c1.59,1.568,2.387,3.564,2.387,5.986
		c0,2.424-0.797,4.432-2.387,6.021c-1.568,1.568-3.623,2.354-6.164,2.354C176.214,106.789,174.147,106.004,172.532,104.436z
		 M173.21,98.414c0,1.688,0.51,3.053,1.531,4.098c1.047,1.07,2.377,1.604,3.992,1.604s2.939-0.527,3.973-1.586
		c1.033-1.057,1.551-2.428,1.551-4.115c0-1.639-0.523-3.004-1.568-4.098c-1.021-1.068-2.34-1.604-3.955-1.604
		s-2.936,0.535-3.955,1.604C173.733,95.363,173.21,96.729,173.21,98.414z"/>
	<path fill="#FDFEFF" d="M194.231,106.432h-2.85V90.398h2.85v1.887c0.951-1.447,2.293-2.172,4.027-2.172
		c1.115,0,1.947,0.201,2.494,0.605l-0.998,2.672c-0.689-0.404-1.414-0.605-2.174-0.605c-1.449,0-2.566,0.76-3.35,2.279V106.432z"/>
	<path fill="#FDFEFF" d="M227.298,95.92v10.512h-2.852v-9.727c0-2.613-1.152-3.92-3.455-3.92c-0.928,0-1.764,0.209-2.512,0.623
		c-0.75,0.416-1.314,0.98-1.693,1.693c0.023,0.119,0.035,0.498,0.035,1.139v10.191h-2.85V96.098c0-1.02-0.303-1.828-0.908-2.422
		s-1.443-0.891-2.512-0.891c-1.783,0-3.184,0.725-4.205,2.174v11.473h-2.852V90.398h2.852v2.029
		c0.594-0.688,1.371-1.246,2.334-1.674c0.961-0.428,1.953-0.641,2.975-0.641c1.211,0,2.244,0.248,3.1,0.748
		c0.855,0.498,1.438,1.176,1.746,2.031c0.594-0.855,1.391-1.533,2.387-2.031c0.998-0.5,2.078-0.748,3.244-0.748
		C225.575,90.113,227.298,92.049,227.298,95.92z"/>
</g>
<g>
	<path fill="#FDFEFF" d="M4.086,34.992V6.9c3.729-0.107,6.305-0.16,7.727-0.16c3.059,0,5.334,0.609,6.822,1.83
		s2.232,2.932,2.232,5.131c0,1.637-0.428,3.006-1.287,4.105c-0.859,1.102-2.039,1.906-3.541,2.416v0.08
		c1.824,0.295,3.252,1.02,4.285,2.174c1.033,1.152,1.551,2.654,1.551,4.506c0,2.684-0.914,4.717-2.738,6.098
		c-1.824,1.383-4.318,2.072-7.484,2.072C8.566,35.152,6.043,35.1,4.086,34.992z M11.732,9.959c-0.805,0-2.213,0.041-4.227,0.121
		v9.096h4.508c1.584,0,2.885-0.424,3.904-1.268c1.02-0.846,1.529-1.992,1.529-3.441C17.447,11.463,15.541,9.959,11.732,9.959z
		 M12.055,22.193H7.506v9.578c1.1,0.107,2.549,0.162,4.348,0.162c2.119,0,3.748-0.436,4.889-1.309
		c1.141-0.871,1.711-2.152,1.711-3.844c0-1.475-0.557-2.609-1.67-3.4S14.092,22.193,12.055,22.193z"/>
	<path fill="#FDFEFF" d="M43.688,35.031H26.502v-2.615c3.648-3.568,6.332-6.412,8.049-8.531c3.031-3.811,4.547-7.004,4.547-9.58
		c0-1.34-0.408-2.434-1.227-3.279s-1.939-1.268-3.361-1.268c-1.232,0-2.313,0.396-3.238,1.188s-1.523,1.898-1.791,3.32l-2.738-1.127
		c0.322-2.012,1.229-3.615,2.717-4.811c1.49-1.193,3.268-1.789,5.334-1.789c2.467,0,4.373,0.711,5.715,2.133
		c1.34,1.422,2.012,3.086,2.012,4.99c0,3.621-1.73,7.473-5.191,11.551c-1.557,1.824-2.805,3.193-3.744,4.105
		c-0.805,0.805-1.77,1.703-2.896,2.695h13V35.031z"/>
	<path fill="#FDFEFF" d="M50.125,34.992V6.9c3.73-0.107,6.305-0.16,7.729-0.16c3.059,0,5.332,0.609,6.82,1.83
		c1.49,1.221,2.234,2.932,2.234,5.131c0,1.637-0.43,3.006-1.287,4.105c-0.859,1.102-2.041,1.906-3.543,2.416v0.08
		c1.824,0.295,3.254,1.02,4.287,2.174c1.033,1.152,1.549,2.654,1.549,4.506c0,2.684-0.912,4.717-2.736,6.098
		c-1.824,1.383-4.32,2.072-7.486,2.072C54.605,35.152,52.084,35.1,50.125,34.992z M57.771,9.959c-0.805,0-2.213,0.041-4.225,0.121
		v9.096h4.508c1.582,0,2.883-0.424,3.902-1.268c1.02-0.846,1.531-1.992,1.531-3.441C63.488,11.463,61.582,9.959,57.771,9.959z
		 M58.094,22.193h-4.547v9.578c1.1,0.107,2.549,0.162,4.346,0.162c2.119,0,3.75-0.436,4.891-1.309
		c1.141-0.871,1.711-2.152,1.711-3.844c0-1.475-0.559-2.609-1.67-3.4C61.709,22.59,60.133,22.193,58.094,22.193z"/>
</g>
<g>
	<path fill="#FDFEFF" d="M125.996,34.891V6.799c3.729-0.105,6.305-0.16,7.727-0.16c3.059,0,5.334,0.611,6.822,1.832
		s2.232,2.932,2.232,5.131c0,1.637-0.428,3.006-1.287,4.105s-2.039,1.904-3.541,2.414v0.08c1.824,0.295,3.252,1.02,4.285,2.174
		s1.551,2.656,1.551,4.508c0,2.684-0.914,4.715-2.738,6.096c-1.824,1.383-4.318,2.074-7.484,2.074
		C130.477,35.053,127.953,34.998,125.996,34.891z M133.643,9.857c-0.805,0-2.213,0.041-4.227,0.121v9.096h4.508
		c1.584,0,2.885-0.422,3.904-1.268s1.529-1.992,1.529-3.441C139.357,11.361,137.451,9.857,133.643,9.857z M133.965,22.094h-4.549
		v9.578c1.1,0.107,2.549,0.16,4.348,0.16c2.119,0,3.748-0.436,4.889-1.309c1.141-0.871,1.711-2.152,1.711-3.842
		c0-1.477-0.557-2.609-1.67-3.4C137.58,22.488,136.002,22.094,133.965,22.094z"/>
	<path fill="#FDFEFF" d="M165.598,34.932h-17.186v-2.615c3.648-3.568,6.332-6.412,8.049-8.533c3.031-3.811,4.547-7.002,4.547-9.578
		c0-1.342-0.408-2.436-1.227-3.279c-0.818-0.846-1.939-1.27-3.361-1.27c-1.232,0-2.313,0.396-3.238,1.188
		c-0.926,0.793-1.523,1.898-1.791,3.32l-2.738-1.127c0.322-2.012,1.229-3.615,2.717-4.809c1.49-1.193,3.268-1.791,5.334-1.791
		c2.467,0,4.373,0.711,5.715,2.133c1.34,1.422,2.012,3.086,2.012,4.99c0,3.623-1.73,7.473-5.191,11.551
		c-1.557,1.824-2.805,3.193-3.744,4.105c-0.805,0.805-1.77,1.703-2.896,2.695h13V34.932z"/>
	<path fill="#FDFEFF" d="M191.637,29.619l1.367,2.576c-0.939,0.965-2.213,1.73-3.822,2.293c-1.611,0.564-3.301,0.846-5.072,0.846
		c-4.213,0-7.66-1.314-10.342-3.943c-2.631-2.684-3.945-6.199-3.945-10.545c0-4.186,1.262-7.633,3.783-10.344
		c2.521-2.762,5.943-4.145,10.264-4.145c3.566,0,6.424,0.912,8.572,2.736l-1.57,2.576c-1.879-1.395-4.199-2.094-6.963-2.094
		c-3.059,0-5.568,1.047-7.525,3.139c-1.959,2.066-2.938,4.777-2.938,8.131s1.006,6.076,3.018,8.17
		c2.066,2.066,4.723,3.098,7.969,3.098C187.168,32.113,189.57,31.283,191.637,29.619z"/>
</g>
<g>
	<path fill="#FDFEFF" d="M241.413,34.932h-3.421V6.76h3.461l10.585,14.448L262.18,6.76h3.26v28.172h-3.42V12.153l-9.981,14.005
		h-0.523l-10.102-13.885V34.932z"/>
	<path fill="#FDFEFF" d="M291.197,34.932h-17.306V6.76h3.421v24.952h13.885V34.932z"/>
	<path fill="#FDFEFF" d="M299.446,34.932h-3.42V6.76h3.461l10.585,14.448L320.214,6.76h3.26v28.172h-3.421V12.153l-9.98,14.005
		h-0.523l-10.103-13.885V34.932z"/>
</g>
</svg>
