<?xml version="1.0" encoding="utf-8"?>
<!-- Generator: Adobe Illustrator 16.0.0, SVG Export Plug-In . SVG Version: 6.00 Build 0)  -->
<!DOCTYPE svg PUBLIC "-//W3C//DTD SVG 1.1//EN" "http://www.w3.org/Graphics/SVG/1.1/DTD/svg11.dtd">
<svg version="1.1" id="Layer_1" xmlns="http://www.w3.org/2000/svg" xmlns:xlink="http://www.w3.org/1999/xlink" x="0px" y="0px"
	 width="234.632px" height="89.631px" viewBox="0 0 234.632 89.631" enable-background="new 0 0 234.632 89.631"
	 xml:space="preserve">
<g>
	<path fill="#FFFFFF" d="M4.016,0.347v22.004H15.84v3.168H0V0.347H4.016z"/>
	<path fill="#FFFFFF" d="M38.467,25.519H20.203V0.347h17.502V3.48H24.219v7.651h12.413v3.064H24.219v8.224h14.248V25.519z"/>
	<path fill="#FFFFFF" d="M54.273,0.347l9.452,25.172h-4.033l-2.563-7.081H46.777l-2.614,7.081h-4.068L49.6,0.347H54.273z
		 M51.954,3.376L47.66,15.408h8.535L51.954,3.376z"/>
	<path fill="#FFFFFF" d="M85.782,7.67c0,0.808-0.119,1.59-0.355,2.346c-0.236,0.756-0.601,1.448-1.091,2.077
		c-0.49,0.629-1.11,1.175-1.86,1.636c-0.751,0.462-1.64,0.803-2.667,1.021l7.029,10.769h-4.536l-6.354-10.353H71.1v10.353h-4.016
		V0.347h9.607c1.478,0,2.782,0.17,3.913,0.511s2.08,0.825,2.848,1.454s1.348,1.396,1.74,2.303
		C85.585,5.521,85.782,6.539,85.782,7.67z M81.73,7.704c0-1.442-0.474-2.542-1.419-3.298c-0.947-0.756-2.269-1.134-3.965-1.134H71.1
		v9.002h5.385c0.911,0,1.699-0.118,2.363-0.354c0.663-0.236,1.208-0.56,1.636-0.97c0.427-0.409,0.741-0.892,0.943-1.445
		C81.629,8.952,81.73,8.351,81.73,7.704z"/>
	<path fill="#FFFFFF" d="M109.031,25.519L94.697,4.813c0.069,1.661,0.104,3.186,0.104,4.57v16.135h-3.583V0.347h4.691l14.524,20.844
		c-0.092-1.87-0.138-3.509-0.138-4.917V0.347h3.565v25.172H109.031z"/>
	<path fill="#FFFFFF" d="M129.703,0.347h5.332l7.236,17.398c0.381,0.866,0.756,1.898,1.125,3.1c0.416-1.247,0.813-2.332,1.193-3.255
		l7.048-17.243h5.28v25.172h-3.566V9.124c0-1.431,0.033-3.088,0.104-4.969c-0.52,1.454-1.154,3.14-1.904,5.055l-6.631,16.309h-3.063
		L134.74,8.311c-0.496-1.224-1.016-2.608-1.558-4.155c0.069,2.021,0.104,3.664,0.104,4.934v16.43h-3.584V0.347L129.703,0.347z"/>
	<path fill="#FFFFFF" d="M186.884,12.812c0,1.974-0.279,3.763-0.84,5.366c-0.56,1.604-1.366,2.979-2.424,4.121
		c-1.056,1.143-2.349,2.022-3.877,2.64c-1.529,0.618-3.259,0.927-5.186,0.927c-2.043,0-3.835-0.323-5.376-0.97
		c-1.54-0.646-2.824-1.55-3.853-2.71c-1.026-1.159-1.798-2.536-2.312-4.129c-0.515-1.593-0.771-3.341-0.771-5.245
		c0-1.962,0.271-3.733,0.813-5.315c0.542-1.581,1.338-2.926,2.39-4.033c1.049-1.108,2.342-1.962,3.877-2.563
		c1.535-0.6,3.289-0.9,5.264-0.9c1.974,0,3.726,0.304,5.255,0.909c1.528,0.605,2.813,1.466,3.852,2.579
		c1.039,1.114,1.829,2.459,2.372,4.034S186.884,10.861,186.884,12.812z M182.833,12.812c0-1.454-0.18-2.775-0.537-3.965
		c-0.356-1.188-0.883-2.201-1.574-3.038c-0.692-0.837-1.553-1.486-2.58-1.947c-1.027-0.462-2.21-0.693-3.549-0.693
		c-1.385,0-2.594,0.231-3.627,0.693c-1.033,0.461-1.896,1.11-2.588,1.947c-0.692,0.837-1.213,1.85-1.559,3.038
		c-0.347,1.189-0.52,2.511-0.52,3.965c0,1.442,0.179,2.77,0.535,3.981c0.357,1.211,0.884,2.257,1.576,3.134
		c0.692,0.877,1.553,1.558,2.58,2.043c1.026,0.484,2.215,0.727,3.565,0.727c1.442,0,2.687-0.248,3.729-0.744
		c1.045-0.496,1.904-1.183,2.58-2.061c0.676-0.877,1.172-1.918,1.488-3.124S182.833,14.242,182.833,12.812z"/>
	<path fill="#FFFFFF" d="M210.933,7.67c0,0.808-0.119,1.59-0.355,2.346s-0.601,1.448-1.091,2.077
		c-0.489,0.629-1.11,1.175-1.86,1.636c-0.75,0.462-1.64,0.803-2.666,1.021l7.028,10.769h-4.536l-6.354-10.353h-4.848v10.353h-4.017
		V0.347h9.606c1.479,0,2.783,0.17,3.914,0.511s2.08,0.825,2.848,1.454s1.348,1.396,1.74,2.303
		C210.735,5.521,210.933,6.539,210.933,7.67z M206.88,7.704c0-1.442-0.473-2.542-1.418-3.298c-0.947-0.756-2.27-1.134-3.965-1.134
		h-5.246v9.002h5.385c0.91,0,1.699-0.118,2.363-0.354c0.662-0.236,1.207-0.56,1.635-0.97c0.428-0.409,0.742-0.892,0.943-1.445
		C206.78,8.952,206.88,8.351,206.88,7.704z"/>
	<path fill="#FFFFFF" d="M234.632,25.519h-18.264V0.347h17.502V3.48h-13.486v7.651h12.412v3.064h-12.412v8.224h14.248V25.519z"/>
</g>
<polygon fill="#FFFFFF" points="116.498,89.631 24.771,47.347 208.22,47.347 "/>
</svg>
