<?xml version="1.0" encoding="utf-8"?>
<!-- Generator: Adobe Illustrator 16.0.0, SVG Export Plug-In . SVG Version: 6.00 Build 0)  -->
<!DOCTYPE svg PUBLIC "-//W3C//DTD SVG 1.1//EN" "http://www.w3.org/Graphics/SVG/1.1/DTD/svg11.dtd">
<svg version="1.1" id="Layer_1" xmlns="http://www.w3.org/2000/svg" xmlns:xlink="http://www.w3.org/1999/xlink" x="0px" y="0px"
	 width="475.5px" height="469.449px" viewBox="-2.009 0 475.5 469.449" enable-background="new -2.009 0 475.5 469.449"
	 xml:space="preserve">
<g>
	<g>
		<path fill="none" stroke="#056184" stroke-miterlimit="10" d="M340.257,175.794c0-20.831-17.726-37.763-39.51-37.763H197.543
			l-6.915,16.416h110.119c12.313,0,22.338,9.578,22.338,21.347c0,11.784-10.022,21.364-22.338,21.364H172.671l-6.902,16.403h134.979
			C322.532,213.562,340.257,196.621,340.257,175.794z"/>
	</g>
	<g>
		<path fill="none" stroke="#056184" stroke-miterlimit="10" d="M298.46,229.648h-98.72l-42.823,101.768H298.46
			c29.355,0,53.233-22.836,53.233-50.885S327.816,229.648,298.46,229.648z M298.46,313.947H183.972l28.114-66.834h86.373
			c19.271,0,34.953,14.99,34.953,33.418S317.729,313.947,298.46,313.947z"/>
	</g>
	<g>
		<path fill="none" stroke="#056184" stroke-miterlimit="10" d="M304.18,298.773c5.839-3.988,9.873-9.811,11.422-16.408H215.185
			l-6.909,16.408H304.18z"/>
	</g>
	<g>
		<polygon fill="none" stroke="#056184" stroke-miterlimit="10" points="160.58,229.648 117.751,331.416 137.196,331.416 
			180.018,229.648 		"/>
	</g>
</g>
<g>
	<path fill="none" stroke="#056184" stroke-miterlimit="10" d="M234.719,469.449C105.297,469.449,0,364.151,0,234.727
		C0,105.297,105.297,0,234.719,0c129.428,0,234.73,105.297,234.73,234.729C469.449,364.151,364.146,469.449,234.719,469.449z
		 M234.719,24.756c-116.995,0-212.173,94.191-212.173,209.973c0,115.776,95.178,209.965,212.173,209.965
		c117.001,0,212.184-94.188,212.184-209.965C446.901,118.947,351.719,24.756,234.719,24.756z"/>
</g>
<g>
	<path fill="none" stroke="#056184" stroke-miterlimit="10" d="M234.719,430.454c-108.328,0-196.462-87.802-196.462-195.728
		c0-107.93,88.134-195.732,196.462-195.732c108.334,0,196.473,87.805,196.473,195.732
		C431.19,342.652,343.052,430.454,234.719,430.454z M234.719,43.945c-105.844,0-191.951,85.586-191.951,190.781
		c0,105.196,86.107,190.775,191.951,190.775c105.852,0,191.963-85.579,191.963-190.775
		C426.681,129.531,340.569,43.945,234.719,43.945z"/>
</g>
</svg>
