<?xml version="1.0" encoding="utf-8"?>
<!-- Generator: Adobe Illustrator 16.0.0, SVG Export Plug-In . SVG Version: 6.00 Build 0)  -->
<!DOCTYPE svg PUBLIC "-//W3C//DTD SVG 1.1//EN" "http://www.w3.org/Graphics/SVG/1.1/DTD/svg11.dtd">
<svg version="1.1" id="Layer_1" xmlns="http://www.w3.org/2000/svg" xmlns:xlink="http://www.w3.org/1999/xlink" x="0px" y="0px"
	 width="149.875px" height="134.428px" viewBox="0 0 149.875 134.428" enable-background="new 0 0 149.875 134.428"
	 xml:space="preserve">
<g>
	<path fill="#22ABCA" d="M149.875,76.198C150.832,54.396,96.969,0,96.969,0L85.322,11.646c0,0,9.197,9.196,19.936,21.796
		L15.36,123.345l11.082,11.083l88.775-88.773c11.176,14.394,21.541,30.498,23.016,42.191
		C138.783,92.213,149.688,80.517,149.875,76.198z"/>
	<g>
		<path fill="#22ABCA" d="M0,76.198C-0.957,54.396,52.906,0,52.906,0l11.646,11.646c0,0-9.195,9.196-19.936,21.796l89.899,89.903
			l-11.084,11.083L34.66,45.654C23.482,60.047,13.117,76.152,11.645,87.846C11.092,92.213,0.186,80.517,0,76.198z"/>
	</g>
</g>
</svg>
