<?xml version="1.0" encoding="utf-8"?>
<!-- Generator: Adobe Illustrator 16.0.0, SVG Export Plug-In . SVG Version: 6.00 Build 0)  -->
<!DOCTYPE svg PUBLIC "-//W3C//DTD SVG 1.1//EN" "http://www.w3.org/Graphics/SVG/1.1/DTD/svg11.dtd">
<svg version="1.1" id="Layer_1" xmlns="http://www.w3.org/2000/svg" xmlns:xlink="http://www.w3.org/1999/xlink" x="0px" y="0px"
	 width="166.941px" height="166.602px" viewBox="0 0 166.941 166.602" enable-background="new 0 0 166.941 166.602"
	 xml:space="preserve">
<g>
	<g>
		<path fill="#FDFEFF" d="M125.094,56.589c0-8.53-6.938-15.465-15.465-15.465H69.231l-2.707,6.722h43.105
			c4.82,0,8.742,3.924,8.742,8.743c0,4.823-3.922,8.747-8.742,8.747H59.494l-2.703,6.722h52.84
			C118.156,72.057,125.094,65.117,125.094,56.589z"/>
		<path fill="#FDFEFF" d="M108.734,78.645H70.09l-16.766,41.677h55.41c11.492,0,20.84-9.35,20.84-20.837
			C129.574,87.995,120.227,78.645,108.734,78.645z M108.734,113.168H63.916l11.008-27.369h33.813
			c7.545,0,13.686,6.138,13.686,13.687C122.42,107.03,116.279,113.168,108.734,113.168z"/>
		<path fill="#FDFEFF" d="M110.975,106.956c2.285-1.638,3.863-4.021,4.473-6.723H76.137l-2.707,6.723H110.975z"/>
		<polygon fill="#FDFEFF" points="54.758,78.645 37.994,120.321 45.605,120.321 62.369,78.645 		"/>
	</g>
	<g>
		<g>
			<path fill="#FDFEFF" d="M83.469,153.072c-38.523,0-69.863-31.223-69.863-69.602c0-38.381,31.34-69.604,69.863-69.604
				c38.521,0,69.865,31.225,69.865,69.604S121.992,153.072,83.469,153.072z M83.469,15.627c-37.641,0-68.262,30.437-68.262,67.845
				c0,37.407,30.621,67.841,68.262,67.841s68.264-30.434,68.264-67.841C151.733,46.063,121.109,15.627,83.469,15.627z"/>
		</g>
	</g>
	<g>
		<path fill="#FDFEFF" d="M83.469,166.939C37.445,166.939,0,129.495,0,83.471C0,37.444,37.445,0,83.469,0
			c46.023,0,83.473,37.443,83.473,83.472C166.941,129.495,129.494,166.939,83.469,166.939z M83.469,8.804
			c-41.605,0-75.451,33.494-75.451,74.667c0,41.171,33.846,74.665,75.451,74.665c41.604,0,75.451-33.494,75.451-74.665
			C158.922,42.299,125.074,8.804,83.469,8.804z"/>
	</g>
</g>
</svg>
