<?xml version="1.0" encoding="utf-8"?>
<!-- Generator: Adobe Illustrator 16.0.0, SVG Export Plug-In . SVG Version: 6.00 Build 0)  -->
<!DOCTYPE svg PUBLIC "-//W3C//DTD SVG 1.1//EN" "http://www.w3.org/Graphics/SVG/1.1/DTD/svg11.dtd">
<svg version="1.1" id="Layer_1" xmlns="http://www.w3.org/2000/svg" xmlns:xlink="http://www.w3.org/1999/xlink" x="0px" y="0px"
	 width="289.762px" height="289.761px" viewBox="0 0 289.762 289.761" enable-background="new 0 0 289.762 289.761"
	 xml:space="preserve">
<g>
	<path fill="#056184" d="M144.88,289.761C64.993,289.761,0,224.768,0,144.881C0,64.993,64.993,0,144.88,0
		c79.888,0,144.882,64.993,144.882,144.881C289.762,224.768,224.768,289.761,144.88,289.761z M144.88,1C65.544,1,1,65.545,1,144.881
		c0,79.335,64.544,143.88,143.88,143.88c79.337,0,143.882-64.544,143.882-143.88C288.762,65.545,224.217,1,144.88,1z"/>
</g>
<g>
	<circle fill="#056184" cx="144.882" cy="89.035" r="57.282"/>
	<path fill="#056184" d="M213.007,154.328H76.755c-9.971,0-18.055,5.372-18.055,12v85.147c8.898,6.63,18.588,12.253,28.898,16.714
		v-62.693c0-1.933,1.567-3.5,3.5-3.5c1.934,0,3.5,1.567,3.5,3.5v65.509c15.658,5.818,32.598,9.004,50.281,9.004
		c17.685,0,34.623-3.186,50.283-9.004v-65.509c0-1.933,1.566-3.5,3.5-3.5c1.933,0,3.5,1.567,3.5,3.5v62.692
		c10.311-4.461,20-10.084,28.898-16.714v-85.146C231.062,159.7,222.978,154.328,213.007,154.328z"/>
</g>
</svg>
