<?xml version="1.0" encoding="utf-8"?>
<!-- Generator: Adobe Illustrator 16.0.0, SVG Export Plug-In . SVG Version: 6.00 Build 0)  -->
<!DOCTYPE svg PUBLIC "-//W3C//DTD SVG 1.1//EN" "http://www.w3.org/Graphics/SVG/1.1/DTD/svg11.dtd">
<svg version="1.1" id="Layer_1" xmlns="http://www.w3.org/2000/svg" xmlns:xlink="http://www.w3.org/1999/xlink" x="0px" y="0px"
	 width="88.129px" height="88.129px" viewBox="0 0 88.129 88.129" enable-background="new 0 0 88.129 88.129" xml:space="preserve">
<g>
	<g>
		<path fill="#FDFEFF" d="M44.065,88.129C19.769,88.129,0,68.361,0,44.064C0,19.766,19.769,0,44.065,0
			c24.296,0,44.063,19.766,44.063,44.064C88.129,68.361,68.361,88.129,44.065,88.129z M44.065,3.525
			c-22.529,0-40.858,18.186-40.858,40.539s18.329,40.54,40.858,40.54c22.527,0,40.856-18.187,40.856-40.54
			S66.593,3.525,44.065,3.525z"/>
	</g>
	<g>
		<path fill="#FDFEFF" d="M44.065,81.273c-20.57,0-37.306-16.691-37.306-37.209c0-20.516,16.735-37.207,37.306-37.207
			c20.572,0,37.304,16.691,37.304,37.207C81.369,64.582,64.637,81.273,44.065,81.273z M44.065,7.738
			c-20.128,0-36.503,16.295-36.503,36.326c0,20.032,16.375,36.327,36.503,36.327c20.126,0,36.501-16.295,36.501-36.327
			C80.566,24.033,64.191,7.738,44.065,7.738z"/>
	</g>
</g>
<path fill="#FFFFFF" d="M63.669,38.952c0.819-5.481-3.354-8.429-9.063-10.395l1.854-7.426l-4.521-1.126l-1.803,7.229
	c-1.188-0.295-2.41-0.574-3.621-0.852l1.814-7.277l-4.519-1.127l-1.853,7.423c-0.983-0.224-1.949-0.444-2.886-0.678l0.005-0.023
	l-6.233-1.557l-1.203,4.828c0,0,3.354,0.77,3.284,0.817c1.83,0.456,2.161,1.667,2.105,2.627l-2.108,8.462
	c0.126,0.031,0.289,0.078,0.47,0.149c-0.15-0.036-0.312-0.079-0.478-0.118l-2.957,11.85c-0.224,0.557-0.792,1.391-2.071,1.074
	c0.045,0.064-3.284-0.82-3.284-0.82l-2.245,5.176l5.884,1.467c1.094,0.273,2.165,0.561,3.221,0.832l-1.871,7.511l4.517,1.126
	l1.852-7.43c1.233,0.334,2.431,0.644,3.603,0.933l-1.846,7.397l4.52,1.127l1.871-7.498c7.709,1.457,13.504,0.869,15.943-6.102
	c1.967-5.611-0.099-8.852-4.15-10.964C60.852,44.908,63.076,42.966,63.669,38.952L63.669,38.952z M53.342,53.434
	c-1.398,5.615-10.85,2.58-13.913,1.818l2.482-9.949C44.975,46.066,54.801,47.58,53.342,53.434z M54.74,38.872
	c-1.275,5.104-9.143,2.512-11.694,1.876l2.251-9.025C47.848,32.358,56.064,33.546,54.74,38.872z"/>
</svg>
