<?xml version="1.0" encoding="utf-8"?>
<!-- Generator: Adobe Illustrator 16.0.0, SVG Export Plug-In . SVG Version: 6.00 Build 0)  -->
<!DOCTYPE svg PUBLIC "-//W3C//DTD SVG 1.1//EN" "http://www.w3.org/Graphics/SVG/1.1/DTD/svg11.dtd">
<svg version="1.1" id="Layer_1" xmlns="http://www.w3.org/2000/svg" xmlns:xlink="http://www.w3.org/1999/xlink" x="0px" y="0px"
	 width="88.129px" height="88.129px" viewBox="133.436 0 88.129 88.129" enable-background="new 133.436 0 88.129 88.129"
	 xml:space="preserve">
<g>
	<g>
		<path fill="#FFFFFF" d="M177.5,88.129c-24.297,0-44.064-19.768-44.064-44.064C133.436,19.766,153.203,0,177.5,0
			s44.064,19.766,44.064,44.064C221.564,68.361,201.797,88.129,177.5,88.129z M177.5,3.525c-22.527,0-40.857,18.186-40.857,40.539
			s18.33,40.54,40.857,40.54s40.857-18.187,40.857-40.54S200.027,3.525,177.5,3.525z"/>
	</g>
	<g>
		<path fill="#FFFFFF" d="M177.5,81.273c-20.57,0-37.305-16.691-37.305-37.209c0-20.516,16.734-37.207,37.305-37.207
			s37.305,16.691,37.305,37.207C214.805,64.582,198.07,81.273,177.5,81.273z M177.5,7.738c-20.129,0-36.504,16.295-36.504,36.326
			c0,20.032,16.375,36.327,36.504,36.327s36.504-16.295,36.504-36.327C214.004,24.033,197.629,7.738,177.5,7.738z"/>
	</g>
</g>
<path fill="#FFFFFF" d="M179.486,53.678"/>
<g>
	<path fill="#FFFFFF" d="M198.5,53.15v-26.62l-21.001,21.686L156.5,26.531v26.62h-10.15c0.824,2.846,2.021,5.533,3.545,8H162.5
		V43.739l15.113,13.924L192.5,43.739V61.15h0.357h12.537c1.522-2.467,2.721-5.154,3.545-8H198.5z"/>
</g>
</svg>
