<?xml version="1.0" encoding="utf-8"?>
<!-- Generator: Adobe Illustrator 16.0.0, SVG Export Plug-In . SVG Version: 6.00 Build 0)  -->
<!DOCTYPE svg PUBLIC "-//W3C//DTD SVG 1.1//EN" "http://www.w3.org/Graphics/SVG/1.1/DTD/svg11.dtd">
<svg version="1.1" id="Layer_1" xmlns="http://www.w3.org/2000/svg" xmlns:xlink="http://www.w3.org/1999/xlink" x="0px" y="0px"
	 width="93.996px" height="94.146px" viewBox="0 0 93.996 94.146" enable-background="new 0 0 93.996 94.146" xml:space="preserve">
<g>
	<g>
		<path fill="#006083" d="M47.042,0.001c-25.998,0-47.074,21.075-47.074,47.073s21.076,47.072,47.074,47.072
			s47.071-21.074,47.071-47.072S73.041,0.001,47.042,0.001z M75.507,34.52c0.021,0.557,0.033,1.111,0.033,1.672
			c0,20.105-15.302,40.908-40.906,40.908c-7.826,0-15.449-2.233-22.039-6.462c-0.137-0.087-0.195-0.259-0.141-0.411
			c0.057-0.152,0.211-0.246,0.369-0.229c1.105,0.133,2.238,0.198,3.357,0.198c6.092,0,11.857-1.884,16.734-5.455
			c-5.846-0.493-10.871-4.45-12.678-10.094c-0.037-0.115-0.01-0.244,0.07-0.336c0.082-0.095,0.209-0.133,0.326-0.112
			c1.621,0.308,3.268,0.329,4.855,0.069c-6.029-1.873-10.266-7.521-10.266-13.948l0.002-0.188c0.002-0.122,0.07-0.233,0.176-0.296
			c0.104-0.063,0.236-0.063,0.342-0.004c1.57,0.873,3.311,1.438,5.096,1.648c-3.465-2.761-5.498-6.946-5.498-11.424
			c0-2.582,0.684-5.123,1.977-7.344c0.059-0.1,0.16-0.16,0.275-0.172c0.113-0.012,0.225,0.039,0.297,0.127
			c7.092,8.697,17.521,14.054,28.674,14.74c-0.186-0.935-0.281-1.898-0.281-2.874c0-8.054,6.553-14.603,14.604-14.603
			c3.959,0,7.785,1.626,10.525,4.469c3.092-0.629,6.035-1.769,8.756-3.378c0.125-0.074,0.281-0.063,0.393,0.025
			c0.113,0.091,0.16,0.239,0.113,0.38c-0.918,2.883-2.715,5.396-5.131,7.215c2.273-0.397,4.48-1.065,6.578-1.998
			c0.141-0.063,0.307-0.023,0.408,0.096c0.1,0.119,0.109,0.291,0.021,0.418C80.641,30.025,78.271,32.502,75.507,34.52z"/>
	</g>
</g>
</svg>
