<?xml version="1.0" encoding="utf-8"?>
<!-- Generator: Adobe Illustrator 16.0.0, SVG Export Plug-In . SVG Version: 6.00 Build 0)  -->
<!DOCTYPE svg PUBLIC "-//W3C//DTD SVG 1.1//EN" "http://www.w3.org/Graphics/SVG/1.1/DTD/svg11.dtd">
<svg version="1.1" id="Layer_1" xmlns="http://www.w3.org/2000/svg" xmlns:xlink="http://www.w3.org/1999/xlink" x="0px" y="0px"
	 width="85.08px" height="85.293px" viewBox="0 0 85.08 85.293" enable-background="new 0 0 85.08 85.293" xml:space="preserve">
<g>
	<path fill="#056184" d="M38.973,6.693C54.319,4.345,69.694,2.134,85.069,0c0.011,13.475,0,26.941,0.011,40.416
		c-15.365,0.057-30.731,0.291-46.107,0.342C38.964,29.396,38.964,18.045,38.973,6.693L38.973,6.693L38.973,6.693z"/>
	<path fill="#056184" d="M0,12.129c11.555-1.782,23.159-3.322,34.764-4.771c0.01,11.174,0.01,22.342,0.02,33.516
		C23.189,40.864,11.595,41.039,0,41.011V12.129L0,12.129L0,12.129z"/>
	<path fill="#056184" d="M0,44.527c11.586-0.039,23.169,0.146,34.754,0.127c0,11.205,0.029,22.41,0.01,33.613
		C23.189,76.555,11.595,75.053,0,73.484V44.527L0,44.527z"/>
	<path fill="#056184" d="M38.905,44.977c15.396,0,30.78,0,46.165,0c0.021,13.435,0,26.873,0,40.316
		c-15.346-2.299-30.723-4.432-46.097-6.518C38.954,67.512,38.924,56.25,38.905,44.977L38.905,44.977z"/>
</g>
</svg>
