<?xml version="1.0" encoding="utf-8"?>
<!-- Generator: Adobe Illustrator 16.0.0, SVG Export Plug-In . SVG Version: 6.00 Build 0)  -->
<!DOCTYPE svg PUBLIC "-//W3C//DTD SVG 1.1//EN" "http://www.w3.org/Graphics/SVG/1.1/DTD/svg11.dtd">
<svg version="1.1" id="Layer_1" xmlns="http://www.w3.org/2000/svg" xmlns:xlink="http://www.w3.org/1999/xlink" x="0px" y="0px"
	 width="93.893px" height="94.146px" viewBox="0 0 93.893 94.146" enable-background="new 0 0 93.893 94.146" xml:space="preserve">
<g>
	<path fill="#FFFFFF" d="M47.074,0C21.076,0,0,21.074,0,47.073C0,73.07,21.076,94.146,47.074,94.146S94.146,73.07,94.146,47.073
		C94.146,21.074,73.072,0,47.074,0z M70.203,32.266l-7.721,36.388c-0.539,2.588-2.104,3.206-4.269,2.011l-11.764-8.69l-5.654,5.498
		c-0.657,0.641-1.176,1.178-2.354,1.178c-1.525,0-1.267-0.576-1.791-2.029L32.65,53.452L21.018,49.82
		c-2.515-0.769-2.533-2.496,0.563-3.738L66.924,28.6C68.996,27.658,70.994,29.096,70.203,32.266z"/>
	<path fill="#FFFFFF" d="M59.592,35.923l-26.938,16.46H32.65l4.002,13.702c0.525,1.452,0.854,2.296,2.381,2.296l1.393-11.732v0.003
		v-0.003L61.662,36.71C62.621,35.857,60.863,35.151,59.592,35.923z"/>
</g>
</svg>
