<?xml version="1.0" encoding="utf-8"?>
<!-- Generator: Adobe Illustrator 16.0.0, SVG Export Plug-In . SVG Version: 6.00 Build 0)  -->
<!DOCTYPE svg PUBLIC "-//W3C//DTD SVG 1.1//EN" "http://www.w3.org/Graphics/SVG/1.1/DTD/svg11.dtd">
<svg version="1.1" id="Layer_1" xmlns="http://www.w3.org/2000/svg" xmlns:xlink="http://www.w3.org/1999/xlink" x="0px" y="0px"
	 width="109px" height="88.129px" viewBox="0 0 109 88.129" enable-background="new 0 0 109 88.129" xml:space="preserve">
<g>
	<g>
		<path fill="#FDFEFF" d="M53.502,88.129c-24.297,0-44.066-19.768-44.066-44.064C9.436,19.766,29.205,0,53.502,0
			s44.063,19.766,44.063,44.064C97.564,68.361,77.799,88.129,53.502,88.129z M53.502,3.525c-22.529,0-40.859,18.186-40.859,40.539
			s18.33,40.54,40.859,40.54c22.527,0,40.855-18.187,40.855-40.54S76.029,3.525,53.502,3.525z"/>
	</g>
	<g>
		<path fill="#FDFEFF" d="M53.502,81.273c-20.57,0-37.307-16.691-37.307-37.209c0-20.516,16.736-37.207,37.307-37.207
			c20.57,0,37.307,16.691,37.307,37.207C90.809,64.582,74.072,81.273,53.502,81.273z M53.502,7.738
			c-20.129,0-36.504,16.295-36.504,36.326c0,20.032,16.375,36.327,36.504,36.327c20.127,0,36.504-16.295,36.504-36.327
			C90.006,24.033,73.629,7.738,53.502,7.738z"/>
	</g>
</g>
<g>
	<g>
		<path fill="#FFFFFF" d="M35.153,44.611l17.932,10.594V14.859L35.153,44.611z"/>
	</g>
	<g>
		<path fill="#FFFFFF" d="M35.153,48.008L53.085,73.27V58.602L35.153,48.008z"/>
	</g>
	<g>
		<path fill="#FFFFFF" d="M53.907,14.859v40.346l17.925-10.594L53.907,14.859z"/>
	</g>
	<g>
		<path fill="#FFFFFF" d="M53.907,58.602V73.27l17.938-25.262L53.907,58.602z"/>
	</g>
</g>
</svg>
