<?xml version="1.0" encoding="utf-8"?>
<!-- Generator: Adobe Illustrator 16.0.0, SVG Export Plug-In . SVG Version: 6.00 Build 0)  -->
<!DOCTYPE svg PUBLIC "-//W3C//DTD SVG 1.1//EN" "http://www.w3.org/Graphics/SVG/1.1/DTD/svg11.dtd">
<svg version="1.1" id="Layer_1" xmlns="http://www.w3.org/2000/svg" xmlns:xlink="http://www.w3.org/1999/xlink" x="0px" y="0px"
	 width="76.23px" height="93.508px" viewBox="0 0 76.23 93.508" enable-background="new 0 0 76.23 93.508" xml:space="preserve">
<g>
	<path fill="#056184" d="M42.061,8.137C48.205,0.039,56.746,0,56.746,0s1.271,7.614-4.833,14.947
		c-6.519,7.833-13.926,6.551-13.926,6.551S36.597,15.338,42.061,8.137z"/>
	<path fill="#056184" d="M38.77,26.83c3.161,0,9.025-4.344,16.661-4.344c13.145,0,18.313,9.352,18.313,9.352
		s-10.111,5.171-10.111,17.717c0,14.153,12.598,19.029,12.598,19.029S67.423,93.373,55.53,93.373c-5.463,0-9.71-3.684-15.467-3.684
		c-5.866,0-11.688,3.817-15.479,3.817C13.723,93.508,0,69.996,0,51.096c0-18.594,11.615-28.35,22.509-28.35
		C29.592,22.746,35.087,26.83,38.77,26.83z"/>
</g>
</svg>
