<?xml version="1.0" encoding="utf-8"?>
<!-- Generator: Adobe Illustrator 16.0.0, SVG Export Plug-In . SVG Version: 6.00 Build 0)  -->
<!DOCTYPE svg PUBLIC "-//W3C//DTD SVG 1.1//EN" "http://www.w3.org/Graphics/SVG/1.1/DTD/svg11.dtd">
<svg version="1.1" id="Layer_1" xmlns="http://www.w3.org/2000/svg" xmlns:xlink="http://www.w3.org/1999/xlink" x="0px" y="0px"
	 width="151px" height="47px" viewBox="0 0 151 47" enable-background="new 0 0 151 47" xml:space="preserve">
<path fill="#22ABCA" d="M151,40.666c0,3.498-3.214,6.334-7.123,6.334H7.075C3.168,47,0,44.164,0,40.666V5.831
	C0,2.333,3.168,0,7.075,0h136.802C147.786,0,151,2.333,151,5.831V40.666z"/>
<path fill="#FFFFFF" d="M48.081,10.072H31.266l-1.191-1.718l0,0c-0.461-0.641-1.362-1.076-2.399-1.076H18.33
	c-1.506,0-2.726,0.918-2.726,2.052v21.366c0,1.134,1.22,2.053,2.726,2.053h29.75c1.505,0,2.725-0.919,2.725-2.053V12.125
	C50.806,10.991,49.586,10.072,48.081,10.072z"/>
<path fill="#056184" d="M51.512,34.973c0,1.179-1.27,2.135-2.836,2.135H17.732c-1.565,0-2.834-0.957-2.834-2.135V15.655
	c0-1.179,1.269-2.134,2.834-2.134h30.944c1.566,0,2.836,0.956,2.836,2.134V34.973z"/>
<polygon fill="#FFFFFF" points="36,27 36,17 31,17 31,27 26.287,27 33.205,33.725 40.124,27 "/>
<g>
	<path fill="#FFFFFF" d="M76.199,17.661l-3.214,0.355c-0.079-0.662-0.284-1.151-0.615-1.466c-0.331-0.315-0.761-0.472-1.289-0.472
		c-0.7,0-1.293,0.314-1.778,0.946c-0.484,0.629-0.79,1.942-0.917,3.935c0.829-0.978,1.855-1.465,3.084-1.465
		c1.387,0,2.575,0.528,3.563,1.583c0.989,1.056,1.483,2.418,1.483,4.088c0,1.773-0.52,3.195-1.559,4.266
		c-1.04,1.072-2.376,1.607-4.006,1.607c-1.749,0-3.188-0.679-4.314-2.039c-1.127-1.359-1.69-3.586-1.69-6.683
		c0-3.174,0.587-5.464,1.761-6.866s2.698-2.104,4.574-2.104c1.315,0,2.404,0.37,3.267,1.105
		C75.413,15.188,75.962,16.259,76.199,17.661z M68.67,24.905c0,1.079,0.248,1.912,0.745,2.499c0.496,0.587,1.063,0.882,1.701,0.882
		c0.615,0,1.128-0.242,1.538-0.722c0.41-0.481,0.615-1.269,0.615-2.363c0-1.127-0.221-1.953-0.662-2.476
		c-0.442-0.524-0.993-0.786-1.655-0.786c-0.639,0-1.179,0.25-1.62,0.75S68.67,23.928,68.67,24.905z"/>
	<path fill="#FFFFFF" d="M84.92,30.743v-3.486h-7.091V24.35l7.517-11.003h2.789v10.992h2.151v2.918h-2.151v3.486H84.92z
		 M84.92,24.339v-5.922l-3.982,5.922H84.92z"/>
	<path fill="#FFFFFF" d="M99.338,13.418h6.926c1.371,0,2.394,0.058,3.068,0.171c0.673,0.114,1.275,0.353,1.807,0.715
		c0.531,0.363,0.976,0.846,1.33,1.447c0.354,0.604,0.533,1.279,0.533,2.027c0,0.813-0.22,1.558-0.657,2.234
		c-0.437,0.677-1.029,1.186-1.778,1.524c1.056,0.308,1.867,0.831,2.435,1.573c0.566,0.74,0.85,1.611,0.85,2.611
		c0,0.788-0.184,1.555-0.551,2.298c-0.365,0.745-0.866,1.339-1.5,1.785c-0.634,0.446-1.416,0.719-2.346,0.821
		c-0.583,0.063-1.989,0.103-4.219,0.117h-5.898V13.418z M102.837,16.302v4.006h2.292c1.363,0,2.209-0.02,2.54-0.06
		c0.599-0.072,1.07-0.277,1.414-0.621c0.343-0.343,0.514-0.792,0.514-1.353c0-0.537-0.148-0.971-0.444-1.307
		c-0.294-0.334-0.734-0.538-1.316-0.607c-0.348-0.04-1.344-0.059-2.991-0.059H102.837z M102.837,23.191v4.633h3.238
		c1.26,0,2.06-0.036,2.399-0.107c0.519-0.093,0.943-0.325,1.271-0.69c0.326-0.367,0.49-0.857,0.49-1.471
		c0-0.522-0.126-0.963-0.379-1.324c-0.251-0.363-0.616-0.628-1.092-0.792c-0.478-0.167-1.511-0.249-3.103-0.249H102.837z"/>
	<path fill="#FFFFFF" d="M116.699,30.743V13.418h3.498v17.325H116.699z"/>
	<path fill="#FFFFFF" d="M127.43,30.743V16.349h-5.141v-2.931h13.768v2.931h-5.13v14.394H127.43z"/>
</g>
</svg>
