<?xml version="1.0" encoding="utf-8"?>
<!-- Generator: Adobe Illustrator 16.0.0, SVG Export Plug-In . SVG Version: 6.00 Build 0)  -->
<!DOCTYPE svg PUBLIC "-//W3C//DTD SVG 1.1//EN" "http://www.w3.org/Graphics/SVG/1.1/DTD/svg11.dtd">
<svg version="1.1" id="Layer_1" xmlns="http://www.w3.org/2000/svg" xmlns:xlink="http://www.w3.org/1999/xlink" x="0px" y="0px"
	 width="158.625px" height="137.178px" viewBox="0 0 158.625 137.178" enable-background="new 0 0 158.625 137.178"
	 xml:space="preserve">
<g>
	<path fill="#056184" d="M150.865,26.785C150.865,12.011,138.847,0,124.08,0H54.105l-4.69,11.642h74.665
		c8.35,0,15.144,6.795,15.144,15.145c0,8.356-6.794,15.152-15.144,15.152H37.238L32.554,53.58h91.525
		C138.847,53.579,150.865,41.559,150.865,26.785z"/>
	<path fill="#22ABCA" d="M122.527,64.99H55.592l-29.038,72.188h95.974c19.904,0,36.097-16.195,36.097-36.093
		C158.625,81.186,142.432,64.99,122.527,64.99z M122.527,124.787H44.899l19.066-47.405h58.562c13.067,0,23.704,10.63,23.704,23.703
		C146.231,114.156,135.595,124.787,122.527,124.787z"/>
	<path fill="#056184" d="M126.408,114.026c3.959-2.833,6.696-6.966,7.746-11.642H66.065l-4.688,11.642H126.408z"/>
	<polygon fill="#056184" points="29.036,64.99 0,137.178 13.182,137.178 42.218,64.99 	"/>
</g>
</svg>
